<svg xmlns="http://www.w3.org/2000/svg" width="1200" height="1650" viewBox="0 0 1200 1650" role="img" aria-labelledby="title">
  <title>Module 10 - Workers &amp; Agencies</title>
  <defs>
    
    <marker id="one" viewBox="0 0 12 12" refX="2" refY="6" markerWidth="10" markerHeight="10" orient="auto">
      <path d="M 2 1 L 2 11" stroke="#475569" stroke-width="1.8" fill="none" stroke-linecap="round"/>
    </marker>
    <marker id="crow" viewBox="0 0 16 12" refX="14" refY="6" markerWidth="12" markerHeight="12" orient="auto">
      <path d="M 1 6 L 14 6 M 14 6 L 2 1 M 14 6 L 2 11" stroke="#475569" stroke-width="1.8" fill="none" stroke-linecap="round" stroke-linejoin="round"/>
    </marker>
    
    
    <style>
      .title { font: 700 28px Inter, Arial, sans-serif; fill: #0f172a; }
      .subtitle { font: 400 15px Inter, Arial, sans-serif; fill: #475569; }
      .module-title { font: 700 18px Inter, Arial, sans-serif; }
      .table-title { font: 700 15px Inter, Arial, sans-serif; fill: #ffffff; }
      .colhead { font: 700 11px Inter, Arial, sans-serif; fill: #475569; }
      .cell { font: 11px Inter, Arial, sans-serif; fill: #111827; }
      .dtype { font: 11px "SFMono-Regular", Consolas, monospace; fill: #475569; }
      .badge { font: 700 10px Inter, Arial, sans-serif; }
      .line-label {
        font: 600 12px Inter, Arial, sans-serif;
        fill: #334155;
        paint-order: stroke;
        stroke: #ffffff;
        stroke-width: 4px;
        stroke-linejoin: round;
      }
      .connector {
        fill: none;
        stroke: #475569;
        stroke-width: 1.8;
        marker-start: url(#one);
        marker-end: url(#crow);
      }
    </style>
    
    <filter id="shadow" x="-20%" y="-20%" width="140%" height="150%">
      <feDropShadow dx="0" dy="4" stdDeviation="8" flood-color="#0f172a" flood-opacity="0.10"/>
    </filter>
  </defs>
  <rect width="1200" height="1650" fill="#ffffff"/>
  <text x="40" y="48" class="title">Module 10 - Workers &amp; Agencies</text>
  <text x="40" y="72" class="subtitle">PK and FK fields shown. Crow's foot connectors use side-only routing with relationship labels.</text>
  <g filter="url(#shadow)">
    
    <g>
<rect x="40" y="108" width="330" height="172" rx="14" ry="14" fill="#fff1f2" stroke="#dc2626" stroke-width="2"/>
<rect x="40" y="108" width="330" height="26" rx="14" ry="14" fill="#dc2626"/>
<rect x="40" y="134" width="330" height="34" fill="#ffffff" stroke="none"/>
<text x="54" y="126" class="table-title">agency_employees</text>
<text x="54" y="152" class="colhead">Key</text>
<text x="112" y="152" class="colhead">Field</text>
<text x="290" y="152" class="colhead">Type</text>
<rect x="41" y="168" width="328" height="20" fill="#f8fafc"/>
<rect x="50" y="172" width="24" height="12" rx="6" ry="6" fill="#f59e0b"/><text x="62" y="181" text-anchor="middle" class="badge" fill="#ffffff">PK</text>
<text x="112" y="182" class="cell">employeeID</text>
<text x="290" y="182" class="dtype">int8</text>
<rect x="50" y="192" width="24" height="12" rx="6" ry="6" fill="#2563eb"/><text x="62" y="201" text-anchor="middle" class="badge" fill="#ffffff">FK</text>
<text x="112" y="202" class="cell">agency_id</text>
<text x="290" y="202" class="dtype">int8</text>
<rect x="41" y="208" width="328" height="20" fill="#f8fafc"/>
<text x="112" y="222" class="cell">email</text>
<text x="290" y="222" class="dtype">varchar</text>
<text x="112" y="242" class="cell">role</text>
<text x="290" y="242" class="dtype">varchar</text>
<rect x="41" y="248" width="328" height="20" fill="#f8fafc"/>
<text x="112" y="262" class="cell">isActive</text>
<text x="290" y="262" class="dtype">bool</text>
</g> <g>
<rect x="400" y="108" width="330" height="192" rx="14" ry="14" fill="#fff1f2" stroke="#dc2626" stroke-width="2"/>
<rect x="400" y="108" width="330" height="26" rx="14" ry="14" fill="#dc2626"/>
<rect x="400" y="134" width="330" height="34" fill="#ffffff" stroke="none"/>
<text x="414" y="126" class="table-title">worker_certifications</text>
<text x="414" y="152" class="colhead">Key</text>
<text x="472" y="152" class="colhead">Field</text>
<text x="650" y="152" class="colhead">Type</text>
<rect x="401" y="168" width="328" height="20" fill="#f8fafc"/>
<rect x="410" y="172" width="24" height="12" rx="6" ry="6" fill="#f59e0b"/><text x="422" y="181" text-anchor="middle" class="badge" fill="#ffffff">PK</text>
<text x="472" y="182" class="cell">certificationID</text>
<text x="650" y="182" class="dtype">int8</text>
<rect x="410" y="192" width="24" height="12" rx="6" ry="6" fill="#2563eb"/><text x="422" y="201" text-anchor="middle" class="badge" fill="#ffffff">FK</text>
<text x="472" y="202" class="cell">verified_by_id</text>
<text x="650" y="202" class="dtype">int8</text>
<rect x="401" y="208" width="328" height="20" fill="#f8fafc"/>
<rect x="410" y="212" width="24" height="12" rx="6" ry="6" fill="#2563eb"/><text x="422" y="221" text-anchor="middle" class="badge" fill="#ffffff">FK</text>
<text x="472" y="222" class="cell">workerID_id</text>
<text x="650" y="222" class="dtype">int8</text>
<rect x="410" y="232" width="24" height="12" rx="6" ry="6" fill="#2563eb"/><text x="422" y="241" text-anchor="middle" class="badge" fill="#ffffff">FK</text>
<text x="472" y="242" class="cell">specializationID_id</text>
<text x="650" y="242" class="dtype">int8</text>
<rect x="401" y="248" width="328" height="20" fill="#f8fafc"/>
<text x="472" y="262" class="cell">name</text>
<text x="650" y="262" class="dtype">varchar</text>
<text x="472" y="282" class="cell">is_verified</text>
<text x="650" y="282" class="dtype">bool</text>
</g> <g>
<rect x="760" y="108" width="330" height="192" rx="14" ry="14" fill="#fff1f2" stroke="#dc2626" stroke-width="2"/>
<rect x="760" y="108" width="330" height="26" rx="14" ry="14" fill="#dc2626"/>
<rect x="760" y="134" width="330" height="34" fill="#ffffff" stroke="none"/>
<text x="774" y="126" class="table-title">worker_materials</text>
<text x="774" y="152" class="colhead">Key</text>
<text x="832" y="152" class="colhead">Field</text>
<text x="1010" y="152" class="colhead">Type</text>
<rect x="761" y="168" width="328" height="20" fill="#f8fafc"/>
<rect x="770" y="172" width="24" height="12" rx="6" ry="6" fill="#f59e0b"/><text x="782" y="181" text-anchor="middle" class="badge" fill="#ffffff">PK</text>
<text x="832" y="182" class="cell">materialID</text>
<text x="1010" y="182" class="dtype">int8</text>
<rect x="770" y="192" width="24" height="12" rx="6" ry="6" fill="#2563eb"/><text x="782" y="201" text-anchor="middle" class="badge" fill="#ffffff">FK</text>
<text x="832" y="202" class="cell">workerID_id</text>
<text x="1010" y="202" class="dtype">int8</text>
<rect x="761" y="208" width="328" height="20" fill="#f8fafc"/>
<rect x="770" y="212" width="24" height="12" rx="6" ry="6" fill="#2563eb"/><text x="782" y="221" text-anchor="middle" class="badge" fill="#ffffff">FK</text>
<text x="832" y="222" class="cell">categoryID_id</text>
<text x="1010" y="222" class="dtype">int8</text>
<rect x="770" y="232" width="24" height="12" rx="6" ry="6" fill="#2563eb"/><text x="782" y="241" text-anchor="middle" class="badge" fill="#ffffff">FK</text>
<text x="832" y="242" class="cell">agencyID_id</text>
<text x="1010" y="242" class="dtype">int8</text>
<rect x="761" y="248" width="328" height="20" fill="#f8fafc"/>
<text x="832" y="262" class="cell">name</text>
<text x="1010" y="262" class="dtype">varchar</text>
<text x="832" y="282" class="cell">is_available</text>
<text x="1010" y="282" class="dtype">bool</text>
</g> <g>
<rect x="40" y="316" width="330" height="152" rx="14" ry="14" fill="#fff1f2" stroke="#dc2626" stroke-width="2"/>
<rect x="40" y="316" width="330" height="26" rx="14" ry="14" fill="#dc2626"/>
<rect x="40" y="342" width="330" height="34" fill="#ffffff" stroke="none"/>
<text x="54" y="334" class="table-title">worker_portfolio</text>
<text x="54" y="360" class="colhead">Key</text>
<text x="112" y="360" class="colhead">Field</text>
<text x="290" y="360" class="colhead">Type</text>
<rect x="41" y="376" width="328" height="20" fill="#f8fafc"/>
<rect x="50" y="380" width="24" height="12" rx="6" ry="6" fill="#f59e0b"/><text x="62" y="389" text-anchor="middle" class="badge" fill="#ffffff">PK</text>
<text x="112" y="390" class="cell">portfolioID</text>
<text x="290" y="390" class="dtype">int8</text>
<rect x="50" y="400" width="24" height="12" rx="6" ry="6" fill="#2563eb"/><text x="62" y="409" text-anchor="middle" class="badge" fill="#ffffff">FK</text>
<text x="112" y="410" class="cell">workerID_id</text>
<text x="290" y="410" class="dtype">int8</text>
<rect x="41" y="416" width="328" height="20" fill="#f8fafc"/>
<text x="112" y="430" class="cell">image_url</text>
<text x="290" y="430" class="dtype">varchar</text>
<text x="112" y="450" class="cell">display_order</text>
<text x="290" y="450" class="dtype">int4</text>
</g> <g>
<rect x="400" y="336" width="330" height="172" rx="14" ry="14" fill="#fff1f2" stroke="#dc2626" stroke-width="2"/>
<rect x="400" y="336" width="330" height="26" rx="14" ry="14" fill="#dc2626"/>
<rect x="400" y="362" width="330" height="34" fill="#ffffff" stroke="none"/>
<text x="414" y="354" class="table-title">profiles_workerproduct</text>
<text x="414" y="380" class="colhead">Key</text>
<text x="472" y="380" class="colhead">Field</text>
<text x="650" y="380" class="colhead">Type</text>
<rect x="401" y="396" width="328" height="20" fill="#f8fafc"/>
<rect x="410" y="400" width="24" height="12" rx="6" ry="6" fill="#f59e0b"/><text x="422" y="409" text-anchor="middle" class="badge" fill="#ffffff">PK</text>
<text x="472" y="410" class="cell">productID</text>
<text x="650" y="410" class="dtype">int8</text>
<rect x="410" y="420" width="24" height="12" rx="6" ry="6" fill="#2563eb"/><text x="422" y="429" text-anchor="middle" class="badge" fill="#ffffff">FK</text>
<text x="472" y="430" class="cell">categoryID_id</text>
<text x="650" y="430" class="dtype">int8</text>
<rect x="401" y="436" width="328" height="20" fill="#f8fafc"/>
<rect x="410" y="440" width="24" height="12" rx="6" ry="6" fill="#2563eb"/><text x="422" y="449" text-anchor="middle" class="badge" fill="#ffffff">FK</text>
<text x="472" y="450" class="cell">workerID_id</text>
<text x="650" y="450" class="dtype">int8</text>
<text x="472" y="470" class="cell">productName</text>
<text x="650" y="470" class="dtype">varchar</text>
<rect x="401" y="476" width="328" height="20" fill="#f8fafc"/>
<text x="472" y="490" class="cell">price</text>
<text x="650" y="490" class="dtype">numeric</text>
</g> <g>
<rect x="760" y="336" width="330" height="212" rx="14" ry="14" fill="#fff1f2" stroke="#dc2626" stroke-width="2"/>
<rect x="760" y="336" width="330" height="26" rx="14" ry="14" fill="#dc2626"/>
<rect x="760" y="362" width="330" height="34" fill="#ffffff" stroke="none"/>
<text x="774" y="354" class="table-title">accounts_notification</text>
<text x="774" y="380" class="colhead">Key</text>
<text x="832" y="380" class="colhead">Field</text>
<text x="1010" y="380" class="colhead">Type</text>
<rect x="761" y="396" width="328" height="20" fill="#f8fafc"/>
<rect x="770" y="400" width="24" height="12" rx="6" ry="6" fill="#f59e0b"/><text x="782" y="409" text-anchor="middle" class="badge" fill="#ffffff">PK</text>
<text x="832" y="410" class="cell">notificationID</text>
<text x="1010" y="410" class="dtype">int8</text>
<rect x="770" y="420" width="24" height="12" rx="6" ry="6" fill="#2563eb"/><text x="782" y="429" text-anchor="middle" class="badge" fill="#ffffff">FK</text>
<text x="832" y="430" class="cell">accountFK_id</text>
<text x="1010" y="430" class="dtype">int8</text>
<rect x="761" y="436" width="328" height="20" fill="#f8fafc"/>
<text x="832" y="450" class="cell">relatedKYCLogID</text>
<text x="1010" y="450" class="dtype">int8</text>
<text x="832" y="470" class="cell">relatedJobID</text>
<text x="1010" y="470" class="dtype">int8</text>
<rect x="761" y="476" width="328" height="20" fill="#f8fafc"/>
<text x="832" y="490" class="cell">relatedApplicationID</text>
<text x="1010" y="490" class="dtype">int8</text>
<text x="832" y="510" class="cell">title</text>
<text x="1010" y="510" class="dtype">varchar</text>
<rect x="761" y="516" width="328" height="20" fill="#f8fafc"/>
<text x="832" y="530" class="cell">isRead</text>
<text x="1010" y="530" class="dtype">bool</text>
</g> <g>
<rect x="40" y="504" width="330" height="172" rx="14" ry="14" fill="#fff1f2" stroke="#dc2626" stroke-width="2"/>
<rect x="40" y="504" width="330" height="26" rx="14" ry="14" fill="#dc2626"/>
<rect x="40" y="530" width="330" height="34" fill="#ffffff" stroke="none"/>
<text x="54" y="522" class="table-title">accounts_notificationsettings</text>
<text x="54" y="548" class="colhead">Key</text>
<text x="112" y="548" class="colhead">Field</text>
<text x="290" y="548" class="colhead">Type</text>
<rect x="41" y="564" width="328" height="20" fill="#f8fafc"/>
<rect x="50" y="568" width="24" height="12" rx="6" ry="6" fill="#f59e0b"/><text x="62" y="577" text-anchor="middle" class="badge" fill="#ffffff">PK</text>
<text x="112" y="578" class="cell">settingsID</text>
<text x="290" y="578" class="dtype">int8</text>
<rect x="50" y="588" width="24" height="12" rx="6" ry="6" fill="#2563eb"/><text x="62" y="597" text-anchor="middle" class="badge" fill="#ffffff">FK</text>
<text x="112" y="598" class="cell">accountFK_id</text>
<text x="290" y="598" class="dtype">int8</text>
<rect x="41" y="604" width="328" height="20" fill="#f8fafc"/>
<text x="112" y="618" class="cell">pushEnabled</text>
<text x="290" y="618" class="dtype">bool</text>
<text x="112" y="638" class="cell">messages</text>
<text x="290" y="638" class="dtype">bool</text>
<rect x="41" y="644" width="328" height="20" fill="#f8fafc"/>
<text x="112" y="658" class="cell">payments</text>
<text x="290" y="658" class="dtype">bool</text>
</g> <g>
<rect x="400" y="544" width="330" height="172" rx="14" ry="14" fill="#fff1f2" stroke="#dc2626" stroke-width="2"/>
<rect x="400" y="544" width="330" height="26" rx="14" ry="14" fill="#dc2626"/>
<rect x="400" y="570" width="330" height="34" fill="#ffffff" stroke="none"/>
<text x="414" y="562" class="table-title">accounts_pushtoken</text>
<text x="414" y="588" class="colhead">Key</text>
<text x="472" y="588" class="colhead">Field</text>
<text x="650" y="588" class="colhead">Type</text>
<rect x="401" y="604" width="328" height="20" fill="#f8fafc"/>
<rect x="410" y="608" width="24" height="12" rx="6" ry="6" fill="#f59e0b"/><text x="422" y="617" text-anchor="middle" class="badge" fill="#ffffff">PK</text>
<text x="472" y="618" class="cell">tokenID</text>
<text x="650" y="618" class="dtype">int8</text>
<rect x="410" y="628" width="24" height="12" rx="6" ry="6" fill="#2563eb"/><text x="422" y="637" text-anchor="middle" class="badge" fill="#ffffff">FK</text>
<text x="472" y="638" class="cell">accountFK_id</text>
<text x="650" y="638" class="dtype">int8</text>
<rect x="401" y="644" width="328" height="20" fill="#f8fafc"/>
<text x="472" y="658" class="cell">pushToken</text>
<text x="650" y="658" class="dtype">varchar</text>
<text x="472" y="678" class="cell">deviceType</text>
<text x="650" y="678" class="dtype">varchar</text>
<rect x="401" y="684" width="328" height="20" fill="#f8fafc"/>
<text x="472" y="698" class="cell">isActive</text>
<text x="650" y="698" class="dtype">bool</text>
</g> <g>
<rect x="760" y="584" width="330" height="172" rx="14" ry="14" fill="#fff1f2" stroke="#dc2626" stroke-width="2"/>
<rect x="760" y="584" width="330" height="26" rx="14" ry="14" fill="#dc2626"/>
<rect x="760" y="610" width="330" height="34" fill="#ffffff" stroke="none"/>
<text x="774" y="602" class="table-title">certification_logs</text>
<text x="774" y="628" class="colhead">Key</text>
<text x="832" y="628" class="colhead">Field</text>
<text x="1010" y="628" class="colhead">Type</text>
<rect x="761" y="644" width="328" height="20" fill="#f8fafc"/>
<rect x="770" y="648" width="24" height="12" rx="6" ry="6" fill="#f59e0b"/><text x="782" y="657" text-anchor="middle" class="badge" fill="#ffffff">PK</text>
<text x="832" y="658" class="cell">certLogID</text>
<text x="1010" y="658" class="dtype">int8</text>
<rect x="770" y="668" width="24" height="12" rx="6" ry="6" fill="#2563eb"/><text x="782" y="677" text-anchor="middle" class="badge" fill="#ffffff">FK</text>
<text x="832" y="678" class="cell">reviewedBy_id</text>
<text x="1010" y="678" class="dtype">int8</text>
<rect x="761" y="684" width="328" height="20" fill="#f8fafc"/>
<rect x="770" y="688" width="24" height="12" rx="6" ry="6" fill="#2563eb"/><text x="782" y="697" text-anchor="middle" class="badge" fill="#ffffff">FK</text>
<text x="832" y="698" class="cell">workerID_id</text>
<text x="1010" y="698" class="dtype">int8</text>
<text x="832" y="718" class="cell">certificationID</text>
<text x="1010" y="718" class="dtype">int8</text>
<rect x="761" y="724" width="328" height="20" fill="#f8fafc"/>
<text x="832" y="738" class="cell">action</text>
<text x="1010" y="738" class="dtype">varchar</text>
</g>
    
  </g>
</svg>
