<svg xmlns="http://www.w3.org/2000/svg" width="1200" height="1650" viewBox="0 0 1200 1650" role="img" aria-labelledby="title">
  <title>Module 7 - Finance &amp; Payments</title>
  <defs>
    
    <marker id="one" viewBox="0 0 12 12" refX="2" refY="6" markerWidth="10" markerHeight="10" orient="auto">
      <path d="M 2 1 L 2 11" stroke="#475569" stroke-width="1.8" fill="none" stroke-linecap="round"/>
    </marker>
    <marker id="crow" viewBox="0 0 16 12" refX="14" refY="6" markerWidth="12" markerHeight="12" orient="auto">
      <path d="M 1 6 L 14 6 M 14 6 L 2 1 M 14 6 L 2 11" stroke="#475569" stroke-width="1.8" fill="none" stroke-linecap="round" stroke-linejoin="round"/>
    </marker>
    
    
    <style>
      .title { font: 700 28px Inter, Arial, sans-serif; fill: #0f172a; }
      .subtitle { font: 400 15px Inter, Arial, sans-serif; fill: #475569; }
      .module-title { font: 700 18px Inter, Arial, sans-serif; }
      .table-title { font: 700 15px Inter, Arial, sans-serif; fill: #ffffff; }
      .colhead { font: 700 11px Inter, Arial, sans-serif; fill: #475569; }
      .cell { font: 11px Inter, Arial, sans-serif; fill: #111827; }
      .dtype { font: 11px "SFMono-Regular", Consolas, monospace; fill: #475569; }
      .badge { font: 700 10px Inter, Arial, sans-serif; }
      .line-label {
        font: 600 12px Inter, Arial, sans-serif;
        fill: #334155;
        paint-order: stroke;
        stroke: #ffffff;
        stroke-width: 4px;
        stroke-linejoin: round;
      }
      .connector {
        fill: none;
        stroke: #475569;
        stroke-width: 1.8;
        marker-start: url(#one);
        marker-end: url(#crow);
      }
    </style>
    
    <filter id="shadow" x="-20%" y="-20%" width="140%" height="150%">
      <feDropShadow dx="0" dy="4" stdDeviation="8" flood-color="#0f172a" flood-opacity="0.10"/>
    </filter>
  </defs>
  <rect width="1200" height="1650" fill="#ffffff"/>
  <text x="40" y="48" class="title">Module 7 - Finance &amp; Payments</text>
  <text x="40" y="72" class="subtitle">PK and FK fields shown. Crow's foot connectors use side-only routing with relationship labels.</text>
  <g filter="url(#shadow)">
    <path class="connector" d="M 400.0 204.0 L 385.0 204.0 L 385.0 204.0 L 370.0 204.0"/> <path class="connector" d="M 760.0 214.0 L 745.0 214.0 L 745.0 204.0 L 730.0 204.0"/>
    <g>
<rect x="40" y="108" width="330" height="192" rx="14" ry="14" fill="#f0fdfa" stroke="#0f766e" stroke-width="2"/>
<rect x="40" y="108" width="330" height="26" rx="14" ry="14" fill="#0f766e"/>
<rect x="40" y="134" width="330" height="34" fill="#ffffff" stroke="none"/>
<text x="54" y="126" class="table-title">accounts_userpaymentmethod</text>
<text x="54" y="152" class="colhead">Key</text>
<text x="112" y="152" class="colhead">Field</text>
<text x="290" y="152" class="colhead">Type</text>
<rect x="41" y="168" width="328" height="20" fill="#f8fafc"/>
<rect x="50" y="172" width="24" height="12" rx="6" ry="6" fill="#f59e0b"/><text x="62" y="181" text-anchor="middle" class="badge" fill="#ffffff">PK</text>
<text x="112" y="182" class="cell">id</text>
<text x="290" y="182" class="dtype">int8</text>
<rect x="50" y="192" width="24" height="12" rx="6" ry="6" fill="#2563eb"/><text x="62" y="201" text-anchor="middle" class="badge" fill="#ffffff">FK</text>
<text x="112" y="202" class="cell">accountFK_id</text>
<text x="290" y="202" class="dtype">int8</text>
<rect x="41" y="208" width="328" height="20" fill="#f8fafc"/>
<text x="112" y="222" class="cell">methodType</text>
<text x="290" y="222" class="dtype">varchar</text>
<text x="112" y="242" class="cell">accountName</text>
<text x="290" y="242" class="dtype">varchar</text>
<rect x="41" y="248" width="328" height="20" fill="#f8fafc"/>
<text x="112" y="262" class="cell">isPrimary</text>
<text x="290" y="262" class="dtype">bool</text>
<text x="112" y="282" class="cell">isVerified</text>
<text x="290" y="282" class="dtype">bool</text>
</g> <g>
<rect x="400" y="108" width="330" height="192" rx="14" ry="14" fill="#f0fdfa" stroke="#0f766e" stroke-width="2"/>
<rect x="400" y="108" width="330" height="26" rx="14" ry="14" fill="#0f766e"/>
<rect x="400" y="134" width="330" height="34" fill="#ffffff" stroke="none"/>
<text x="414" y="126" class="table-title">accounts_wallet</text>
<text x="414" y="152" class="colhead">Key</text>
<text x="472" y="152" class="colhead">Field</text>
<text x="650" y="152" class="colhead">Type</text>
<rect x="401" y="168" width="328" height="20" fill="#f8fafc"/>
<rect x="410" y="172" width="24" height="12" rx="6" ry="6" fill="#f59e0b"/><text x="422" y="181" text-anchor="middle" class="badge" fill="#ffffff">PK</text>
<text x="472" y="182" class="cell">walletID</text>
<text x="650" y="182" class="dtype">int8</text>
<rect x="410" y="192" width="24" height="12" rx="6" ry="6" fill="#2563eb"/><text x="422" y="201" text-anchor="middle" class="badge" fill="#ffffff">FK</text>
<text x="472" y="202" class="cell">accountFK_id</text>
<text x="650" y="202" class="dtype">int8</text>
<rect x="401" y="208" width="328" height="20" fill="#f8fafc"/>
<rect x="410" y="212" width="24" height="12" rx="6" ry="6" fill="#2563eb"/><text x="422" y="221" text-anchor="middle" class="badge" fill="#ffffff">FK</text>
<text x="472" y="222" class="cell">preferredPaymentMethodID_id</text>
<text x="650" y="222" class="dtype">int8</text>
<text x="472" y="242" class="cell">balance</text>
<text x="650" y="242" class="dtype">numeric</text>
<rect x="401" y="248" width="328" height="20" fill="#f8fafc"/>
<text x="472" y="262" class="cell">reservedBalance</text>
<text x="650" y="262" class="dtype">numeric</text>
<text x="472" y="282" class="cell">pendingEarnings</text>
<text x="650" y="282" class="dtype">numeric</text>
</g> <g>
<rect x="760" y="108" width="330" height="212" rx="14" ry="14" fill="#f0fdfa" stroke="#0f766e" stroke-width="2"/>
<rect x="760" y="108" width="330" height="26" rx="14" ry="14" fill="#0f766e"/>
<rect x="760" y="134" width="330" height="34" fill="#ffffff" stroke="none"/>
<text x="774" y="126" class="table-title">accounts_transaction</text>
<text x="774" y="152" class="colhead">Key</text>
<text x="832" y="152" class="colhead">Field</text>
<text x="1010" y="152" class="colhead">Type</text>
<rect x="761" y="168" width="328" height="20" fill="#f8fafc"/>
<rect x="770" y="172" width="24" height="12" rx="6" ry="6" fill="#f59e0b"/><text x="782" y="181" text-anchor="middle" class="badge" fill="#ffffff">PK</text>
<text x="832" y="182" class="cell">transactionID</text>
<text x="1010" y="182" class="dtype">int8</text>
<rect x="770" y="192" width="24" height="12" rx="6" ry="6" fill="#2563eb"/><text x="782" y="201" text-anchor="middle" class="badge" fill="#ffffff">FK</text>
<text x="832" y="202" class="cell">walletID_id</text>
<text x="1010" y="202" class="dtype">int8</text>
<rect x="761" y="208" width="328" height="20" fill="#f8fafc"/>
<rect x="770" y="212" width="24" height="12" rx="6" ry="6" fill="#2563eb"/><text x="782" y="221" text-anchor="middle" class="badge" fill="#ffffff">FK</text>
<text x="832" y="222" class="cell">relatedJobPosting_id</text>
<text x="1010" y="222" class="dtype">int8</text>
<rect x="770" y="232" width="24" height="12" rx="6" ry="6" fill="#2563eb"/><text x="782" y="241" text-anchor="middle" class="badge" fill="#ffffff">FK</text>
<text x="832" y="242" class="cell">processedByAdmin_id</text>
<text x="1010" y="242" class="dtype">int8</text>
<rect x="761" y="248" width="328" height="20" fill="#f8fafc"/>
<text x="832" y="262" class="cell">transactionType</text>
<text x="1010" y="262" class="dtype">varchar</text>
<text x="832" y="282" class="cell">amount</text>
<text x="1010" y="282" class="dtype">numeric</text>
<rect x="761" y="288" width="328" height="20" fill="#f8fafc"/>
<text x="832" y="302" class="cell">status</text>
<text x="1010" y="302" class="dtype">varchar</text>
</g>
    <text x="385.0" y="196.0" text-anchor="middle" class="line-label">prefers</text> <text x="745.0" y="201.0" text-anchor="middle" class="line-label">belongs to</text>
  </g>
</svg>
