<svg xmlns="http://www.w3.org/2000/svg" width="1200" height="1650" viewBox="0 0 1200 1650" role="img" aria-labelledby="title">
  <title>Module 8 - Messaging</title>
  <defs>
    
    <marker id="one" viewBox="0 0 12 12" refX="2" refY="6" markerWidth="10" markerHeight="10" orient="auto">
      <path d="M 2 1 L 2 11" stroke="#475569" stroke-width="1.8" fill="none" stroke-linecap="round"/>
    </marker>
    <marker id="crow" viewBox="0 0 16 12" refX="14" refY="6" markerWidth="12" markerHeight="12" orient="auto">
      <path d="M 1 6 L 14 6 M 14 6 L 2 1 M 14 6 L 2 11" stroke="#475569" stroke-width="1.8" fill="none" stroke-linecap="round" stroke-linejoin="round"/>
    </marker>
    
    
    <style>
      .title { font: 700 28px Inter, Arial, sans-serif; fill: #0f172a; }
      .subtitle { font: 400 15px Inter, Arial, sans-serif; fill: #475569; }
      .module-title { font: 700 18px Inter, Arial, sans-serif; }
      .table-title { font: 700 15px Inter, Arial, sans-serif; fill: #ffffff; }
      .colhead { font: 700 11px Inter, Arial, sans-serif; fill: #475569; }
      .cell { font: 11px Inter, Arial, sans-serif; fill: #111827; }
      .dtype { font: 11px "SFMono-Regular", Consolas, monospace; fill: #475569; }
      .badge { font: 700 10px Inter, Arial, sans-serif; }
      .line-label {
        font: 600 12px Inter, Arial, sans-serif;
        fill: #334155;
        paint-order: stroke;
        stroke: #ffffff;
        stroke-width: 4px;
        stroke-linejoin: round;
      }
      .connector {
        fill: none;
        stroke: #475569;
        stroke-width: 1.8;
        marker-start: url(#one);
        marker-end: url(#crow);
      }
    </style>
    
    <filter id="shadow" x="-20%" y="-20%" width="140%" height="150%">
      <feDropShadow dx="0" dy="4" stdDeviation="8" flood-color="#0f172a" flood-opacity="0.10"/>
    </filter>
  </defs>
  <rect width="1200" height="1650" fill="#ffffff"/>
  <text x="40" y="48" class="title">Module 8 - Messaging</text>
  <text x="40" y="72" class="subtitle">PK and FK fields shown. Crow's foot connectors use side-only routing with relationship labels.</text>
  <g filter="url(#shadow)">
    <path class="connector" d="M 400.0 204.0 L 385.0 204.0 L 385.0 214.0 L 370.0 214.0"/> <path class="connector" d="M 760.0 204.0 L 565.0 204.0 L 565.0 214.0 L 370.0 214.0"/> <path class="connector" d="M 370.0 432.0 L 565.0 432.0 L 565.0 204.0 L 760.0 204.0"/>
    <g>
<rect x="40" y="108" width="330" height="212" rx="14" ry="14" fill="#f5f3ff" stroke="#7c3aed" stroke-width="2"/>
<rect x="40" y="108" width="330" height="26" rx="14" ry="14" fill="#7c3aed"/>
<rect x="40" y="134" width="330" height="34" fill="#ffffff" stroke="none"/>
<text x="54" y="126" class="table-title">conversation</text>
<text x="54" y="152" class="colhead">Key</text>
<text x="112" y="152" class="colhead">Field</text>
<text x="290" y="152" class="colhead">Type</text>
<rect x="41" y="168" width="328" height="20" fill="#f8fafc"/>
<rect x="50" y="172" width="24" height="12" rx="6" ry="6" fill="#f59e0b"/><text x="62" y="181" text-anchor="middle" class="badge" fill="#ffffff">PK</text>
<text x="112" y="182" class="cell">conversationID</text>
<text x="290" y="182" class="dtype">int8</text>
<rect x="50" y="192" width="24" height="12" rx="6" ry="6" fill="#2563eb"/><text x="62" y="201" text-anchor="middle" class="badge" fill="#ffffff">FK</text>
<text x="112" y="202" class="cell">client_id</text>
<text x="290" y="202" class="dtype">int8</text>
<rect x="41" y="208" width="328" height="20" fill="#f8fafc"/>
<rect x="50" y="212" width="24" height="12" rx="6" ry="6" fill="#2563eb"/><text x="62" y="221" text-anchor="middle" class="badge" fill="#ffffff">FK</text>
<text x="112" y="222" class="cell">worker_id</text>
<text x="290" y="222" class="dtype">int8</text>
<rect x="50" y="232" width="24" height="12" rx="6" ry="6" fill="#2563eb"/><text x="62" y="241" text-anchor="middle" class="badge" fill="#ffffff">FK</text>
<text x="112" y="242" class="cell">agency_id</text>
<text x="290" y="242" class="dtype">int8</text>
<rect x="41" y="248" width="328" height="20" fill="#f8fafc"/>
<rect x="50" y="252" width="24" height="12" rx="6" ry="6" fill="#2563eb"/><text x="62" y="261" text-anchor="middle" class="badge" fill="#ffffff">FK</text>
<text x="112" y="262" class="cell">lastMessageSender_id</text>
<text x="290" y="262" class="dtype">int8</text>
<rect x="50" y="272" width="24" height="12" rx="6" ry="6" fill="#2563eb"/><text x="62" y="281" text-anchor="middle" class="badge" fill="#ffffff">FK</text>
<text x="112" y="282" class="cell">relatedJobPosting_id</text>
<text x="290" y="282" class="dtype">int8</text>
<rect x="41" y="288" width="328" height="20" fill="#f8fafc"/>
<text x="112" y="302" class="cell">status</text>
<text x="290" y="302" class="dtype">varchar</text>
</g> <g>
<rect x="400" y="108" width="330" height="192" rx="14" ry="14" fill="#f5f3ff" stroke="#7c3aed" stroke-width="2"/>
<rect x="400" y="108" width="330" height="26" rx="14" ry="14" fill="#7c3aed"/>
<rect x="400" y="134" width="330" height="34" fill="#ffffff" stroke="none"/>
<text x="414" y="126" class="table-title">conversation_participants</text>
<text x="414" y="152" class="colhead">Key</text>
<text x="472" y="152" class="colhead">Field</text>
<text x="650" y="152" class="colhead">Type</text>
<rect x="401" y="168" width="328" height="20" fill="#f8fafc"/>
<rect x="410" y="172" width="24" height="12" rx="6" ry="6" fill="#f59e0b"/><text x="422" y="181" text-anchor="middle" class="badge" fill="#ffffff">PK</text>
<text x="472" y="182" class="cell">participantID</text>
<text x="650" y="182" class="dtype">int8</text>
<rect x="410" y="192" width="24" height="12" rx="6" ry="6" fill="#2563eb"/><text x="422" y="201" text-anchor="middle" class="badge" fill="#ffffff">FK</text>
<text x="472" y="202" class="cell">conversation_id</text>
<text x="650" y="202" class="dtype">int8</text>
<rect x="401" y="208" width="328" height="20" fill="#f8fafc"/>
<rect x="410" y="212" width="24" height="12" rx="6" ry="6" fill="#2563eb"/><text x="422" y="221" text-anchor="middle" class="badge" fill="#ffffff">FK</text>
<text x="472" y="222" class="cell">profile_id</text>
<text x="650" y="222" class="dtype">int8</text>
<rect x="410" y="232" width="24" height="12" rx="6" ry="6" fill="#2563eb"/><text x="422" y="241" text-anchor="middle" class="badge" fill="#ffffff">FK</text>
<text x="472" y="242" class="cell">skill_slot_id</text>
<text x="650" y="242" class="dtype">int8</text>
<rect x="401" y="248" width="328" height="20" fill="#f8fafc"/>
<rect x="410" y="252" width="24" height="12" rx="6" ry="6" fill="#2563eb"/><text x="422" y="261" text-anchor="middle" class="badge" fill="#ffffff">FK</text>
<text x="472" y="262" class="cell">admin_account_id</text>
<text x="650" y="262" class="dtype">int8</text>
<text x="472" y="282" class="cell">participant_type</text>
<text x="650" y="282" class="dtype">varchar</text>
</g> <g>
<rect x="760" y="108" width="330" height="192" rx="14" ry="14" fill="#f5f3ff" stroke="#7c3aed" stroke-width="2"/>
<rect x="760" y="108" width="330" height="26" rx="14" ry="14" fill="#7c3aed"/>
<rect x="760" y="134" width="330" height="34" fill="#ffffff" stroke="none"/>
<text x="774" y="126" class="table-title">message</text>
<text x="774" y="152" class="colhead">Key</text>
<text x="832" y="152" class="colhead">Field</text>
<text x="1010" y="152" class="colhead">Type</text>
<rect x="761" y="168" width="328" height="20" fill="#f8fafc"/>
<rect x="770" y="172" width="24" height="12" rx="6" ry="6" fill="#f59e0b"/><text x="782" y="181" text-anchor="middle" class="badge" fill="#ffffff">PK</text>
<text x="832" y="182" class="cell">messageID</text>
<text x="1010" y="182" class="dtype">int8</text>
<rect x="770" y="192" width="24" height="12" rx="6" ry="6" fill="#2563eb"/><text x="782" y="201" text-anchor="middle" class="badge" fill="#ffffff">FK</text>
<text x="832" y="202" class="cell">conversationID_id</text>
<text x="1010" y="202" class="dtype">int8</text>
<rect x="761" y="208" width="328" height="20" fill="#f8fafc"/>
<rect x="770" y="212" width="24" height="12" rx="6" ry="6" fill="#2563eb"/><text x="782" y="221" text-anchor="middle" class="badge" fill="#ffffff">FK</text>
<text x="832" y="222" class="cell">sender_id</text>
<text x="1010" y="222" class="dtype">int8</text>
<rect x="770" y="232" width="24" height="12" rx="6" ry="6" fill="#2563eb"/><text x="782" y="241" text-anchor="middle" class="badge" fill="#ffffff">FK</text>
<text x="832" y="242" class="cell">senderAgency_id</text>
<text x="1010" y="242" class="dtype">int8</text>
<rect x="761" y="248" width="328" height="20" fill="#f8fafc"/>
<rect x="770" y="252" width="24" height="12" rx="6" ry="6" fill="#2563eb"/><text x="782" y="261" text-anchor="middle" class="badge" fill="#ffffff">FK</text>
<text x="832" y="262" class="cell">sender_admin_id</text>
<text x="1010" y="262" class="dtype">int8</text>
<text x="832" y="282" class="cell">messageType</text>
<text x="1010" y="282" class="dtype">varchar</text>
</g> <g>
<rect x="40" y="356" width="330" height="152" rx="14" ry="14" fill="#f5f3ff" stroke="#7c3aed" stroke-width="2"/>
<rect x="40" y="356" width="330" height="26" rx="14" ry="14" fill="#7c3aed"/>
<rect x="40" y="382" width="330" height="34" fill="#ffffff" stroke="none"/>
<text x="54" y="374" class="table-title">message_attachment</text>
<text x="54" y="400" class="colhead">Key</text>
<text x="112" y="400" class="colhead">Field</text>
<text x="290" y="400" class="colhead">Type</text>
<rect x="41" y="416" width="328" height="20" fill="#f8fafc"/>
<rect x="50" y="420" width="24" height="12" rx="6" ry="6" fill="#f59e0b"/><text x="62" y="429" text-anchor="middle" class="badge" fill="#ffffff">PK</text>
<text x="112" y="430" class="cell">attachmentID</text>
<text x="290" y="430" class="dtype">int8</text>
<rect x="50" y="440" width="24" height="12" rx="6" ry="6" fill="#2563eb"/><text x="62" y="449" text-anchor="middle" class="badge" fill="#ffffff">FK</text>
<text x="112" y="450" class="cell">messageID_id</text>
<text x="290" y="450" class="dtype">int8</text>
<rect x="41" y="456" width="328" height="20" fill="#f8fafc"/>
<text x="112" y="470" class="cell">fileURL</text>
<text x="290" y="470" class="dtype">varchar</text>
<text x="112" y="490" class="cell">fileType</text>
<text x="290" y="490" class="dtype">varchar</text>
</g>
    <text x="385.0" y="201.0" text-anchor="middle" class="line-label">belongs to</text> <text x="565.0" y="201.0" text-anchor="middle" class="line-label">belongs to</text> <text x="565.0" y="310.0" text-anchor="middle" class="line-label">attached to</text>
  </g>
</svg>
