<svg xmlns="http://www.w3.org/2000/svg" width="1200" height="1650" viewBox="0 0 1200 1650" role="img" aria-labelledby="title">
  <title>Module 3 - KYC Verification</title>
  <defs>
    
    <marker id="one" viewBox="0 0 12 12" refX="2" refY="6" markerWidth="10" markerHeight="10" orient="auto">
      <path d="M 2 1 L 2 11" stroke="#475569" stroke-width="1.8" fill="none" stroke-linecap="round"/>
    </marker>
    <marker id="crow" viewBox="0 0 16 12" refX="14" refY="6" markerWidth="12" markerHeight="12" orient="auto">
      <path d="M 1 6 L 14 6 M 14 6 L 2 1 M 14 6 L 2 11" stroke="#475569" stroke-width="1.8" fill="none" stroke-linecap="round" stroke-linejoin="round"/>
    </marker>
    
    
    <style>
      .title { font: 700 28px Inter, Arial, sans-serif; fill: #0f172a; }
      .subtitle { font: 400 15px Inter, Arial, sans-serif; fill: #475569; }
      .module-title { font: 700 18px Inter, Arial, sans-serif; }
      .table-title { font: 700 15px Inter, Arial, sans-serif; fill: #ffffff; }
      .colhead { font: 700 11px Inter, Arial, sans-serif; fill: #475569; }
      .cell { font: 11px Inter, Arial, sans-serif; fill: #111827; }
      .dtype { font: 11px "SFMono-Regular", Consolas, monospace; fill: #475569; }
      .badge { font: 700 10px Inter, Arial, sans-serif; }
      .line-label {
        font: 600 12px Inter, Arial, sans-serif;
        fill: #334155;
        paint-order: stroke;
        stroke: #ffffff;
        stroke-width: 4px;
        stroke-linejoin: round;
      }
      .connector {
        fill: none;
        stroke: #475569;
        stroke-width: 1.8;
        marker-start: url(#one);
        marker-end: url(#crow);
      }
    </style>
    
    <filter id="shadow" x="-20%" y="-20%" width="140%" height="150%">
      <feDropShadow dx="0" dy="4" stdDeviation="8" flood-color="#0f172a" flood-opacity="0.10"/>
    </filter>
  </defs>
  <rect width="1200" height="1650" fill="#ffffff"/>
  <text x="40" y="48" class="title">Module 3 - KYC Verification</text>
  <text x="40" y="72" class="subtitle">PK and FK fields shown. Crow's foot connectors use side-only routing with relationship labels.</text>
  <g filter="url(#shadow)">
    <path class="connector" d="M 400.0 194.0 L 385.0 194.0 L 385.0 204.0 L 370.0 204.0"/> <path class="connector" d="M 760.0 194.0 L 565.0 194.0 L 565.0 204.0 L 370.0 204.0"/> <path class="connector" d="M 400.0 402.0 L 385.0 402.0 L 385.0 422.0 L 370.0 422.0"/> <path class="connector" d="M 760.0 402.0 L 565.0 402.0 L 565.0 422.0 L 370.0 422.0"/>
    <g>
<rect x="40" y="108" width="330" height="192" rx="14" ry="14" fill="#fff7ed" stroke="#ea580c" stroke-width="2"/>
<rect x="40" y="108" width="330" height="26" rx="14" ry="14" fill="#ea580c"/>
<rect x="40" y="134" width="330" height="34" fill="#ffffff" stroke="none"/>
<text x="54" y="126" class="table-title">accounts_kyc</text>
<text x="54" y="152" class="colhead">Key</text>
<text x="112" y="152" class="colhead">Field</text>
<text x="290" y="152" class="colhead">Type</text>
<rect x="41" y="168" width="328" height="20" fill="#f8fafc"/>
<rect x="50" y="172" width="24" height="12" rx="6" ry="6" fill="#f59e0b"/><text x="62" y="181" text-anchor="middle" class="badge" fill="#ffffff">PK</text>
<text x="112" y="182" class="cell">kycID</text>
<text x="290" y="182" class="dtype">int8</text>
<rect x="50" y="192" width="24" height="12" rx="6" ry="6" fill="#2563eb"/><text x="62" y="201" text-anchor="middle" class="badge" fill="#ffffff">FK</text>
<text x="112" y="202" class="cell">accountFK_id</text>
<text x="290" y="202" class="dtype">int8</text>
<rect x="41" y="208" width="328" height="20" fill="#f8fafc"/>
<rect x="50" y="212" width="24" height="12" rx="6" ry="6" fill="#2563eb"/><text x="62" y="221" text-anchor="middle" class="badge" fill="#ffffff">FK</text>
<text x="112" y="222" class="cell">reviewedBy_id</text>
<text x="290" y="222" class="dtype">int8</text>
<text x="112" y="242" class="cell">kyc_status</text>
<text x="290" y="242" class="dtype">varchar</text>
<rect x="41" y="248" width="328" height="20" fill="#f8fafc"/>
<text x="112" y="262" class="cell">resubmissionCount</text>
<text x="290" y="262" class="dtype">int4</text>
<text x="112" y="282" class="cell">maxResubmissions</text>
<text x="290" y="282" class="dtype">int4</text>
</g> <g>
<rect x="400" y="108" width="330" height="172" rx="14" ry="14" fill="#fff7ed" stroke="#ea580c" stroke-width="2"/>
<rect x="400" y="108" width="330" height="26" rx="14" ry="14" fill="#ea580c"/>
<rect x="400" y="134" width="330" height="34" fill="#ffffff" stroke="none"/>
<text x="414" y="126" class="table-title">accounts_kycfiles</text>
<text x="414" y="152" class="colhead">Key</text>
<text x="472" y="152" class="colhead">Field</text>
<text x="650" y="152" class="colhead">Type</text>
<rect x="401" y="168" width="328" height="20" fill="#f8fafc"/>
<rect x="410" y="172" width="24" height="12" rx="6" ry="6" fill="#f59e0b"/><text x="422" y="181" text-anchor="middle" class="badge" fill="#ffffff">PK</text>
<text x="472" y="182" class="cell">kycFileID</text>
<text x="650" y="182" class="dtype">int8</text>
<rect x="410" y="192" width="24" height="12" rx="6" ry="6" fill="#2563eb"/><text x="422" y="201" text-anchor="middle" class="badge" fill="#ffffff">FK</text>
<text x="472" y="202" class="cell">kycID_id</text>
<text x="650" y="202" class="dtype">int8</text>
<rect x="401" y="208" width="328" height="20" fill="#f8fafc"/>
<text x="472" y="222" class="cell">fileURL</text>
<text x="650" y="222" class="dtype">varchar</text>
<text x="472" y="242" class="cell">idType</text>
<text x="650" y="242" class="dtype">varchar</text>
<rect x="401" y="248" width="328" height="20" fill="#f8fafc"/>
<text x="472" y="262" class="cell">ai_verification_status</text>
<text x="650" y="262" class="dtype">varchar</text>
</g> <g>
<rect x="760" y="108" width="330" height="172" rx="14" ry="14" fill="#fff7ed" stroke="#ea580c" stroke-width="2"/>
<rect x="760" y="108" width="330" height="26" rx="14" ry="14" fill="#ea580c"/>
<rect x="760" y="134" width="330" height="34" fill="#ffffff" stroke="none"/>
<text x="774" y="126" class="table-title">kyc_extracted_data</text>
<text x="774" y="152" class="colhead">Key</text>
<text x="832" y="152" class="colhead">Field</text>
<text x="1010" y="152" class="colhead">Type</text>
<rect x="761" y="168" width="328" height="20" fill="#f8fafc"/>
<rect x="770" y="172" width="24" height="12" rx="6" ry="6" fill="#f59e0b"/><text x="782" y="181" text-anchor="middle" class="badge" fill="#ffffff">PK</text>
<text x="832" y="182" class="cell">extractedDataID</text>
<text x="1010" y="182" class="dtype">int8</text>
<rect x="770" y="192" width="24" height="12" rx="6" ry="6" fill="#2563eb"/><text x="782" y="201" text-anchor="middle" class="badge" fill="#ffffff">FK</text>
<text x="832" y="202" class="cell">kycID_id</text>
<text x="1010" y="202" class="dtype">int8</text>
<rect x="761" y="208" width="328" height="20" fill="#f8fafc"/>
<text x="832" y="222" class="cell">extracted_full_name</text>
<text x="1010" y="222" class="dtype">varchar</text>
<text x="832" y="242" class="cell">confirmed_full_name</text>
<text x="1010" y="242" class="dtype">varchar</text>
<rect x="761" y="248" width="328" height="20" fill="#f8fafc"/>
<text x="832" y="262" class="cell">extraction_status</text>
<text x="1010" y="262" class="dtype">varchar</text>
</g> <g>
<rect x="40" y="336" width="330" height="172" rx="14" ry="14" fill="#fff7ed" stroke="#ea580c" stroke-width="2"/>
<rect x="40" y="336" width="330" height="26" rx="14" ry="14" fill="#ea580c"/>
<rect x="40" y="362" width="330" height="34" fill="#ffffff" stroke="none"/>
<text x="54" y="354" class="table-title">agency_agencykyc</text>
<text x="54" y="380" class="colhead">Key</text>
<text x="112" y="380" class="colhead">Field</text>
<text x="290" y="380" class="colhead">Type</text>
<rect x="41" y="396" width="328" height="20" fill="#f8fafc"/>
<rect x="50" y="400" width="24" height="12" rx="6" ry="6" fill="#f59e0b"/><text x="62" y="409" text-anchor="middle" class="badge" fill="#ffffff">PK</text>
<text x="112" y="410" class="cell">agencyKycID</text>
<text x="290" y="410" class="dtype">int8</text>
<rect x="50" y="420" width="24" height="12" rx="6" ry="6" fill="#2563eb"/><text x="62" y="429" text-anchor="middle" class="badge" fill="#ffffff">FK</text>
<text x="112" y="430" class="cell">accountFK_id</text>
<text x="290" y="430" class="dtype">int8</text>
<rect x="41" y="436" width="328" height="20" fill="#f8fafc"/>
<rect x="50" y="440" width="24" height="12" rx="6" ry="6" fill="#2563eb"/><text x="62" y="449" text-anchor="middle" class="badge" fill="#ffffff">FK</text>
<text x="112" y="450" class="cell">reviewedBy_id</text>
<text x="290" y="450" class="dtype">int8</text>
<text x="112" y="470" class="cell">status</text>
<text x="290" y="470" class="dtype">varchar</text>
<rect x="41" y="476" width="328" height="20" fill="#f8fafc"/>
<text x="112" y="490" class="cell">resubmissionCount</text>
<text x="290" y="490" class="dtype">int4</text>
</g> <g>
<rect x="400" y="316" width="330" height="172" rx="14" ry="14" fill="#fff7ed" stroke="#ea580c" stroke-width="2"/>
<rect x="400" y="316" width="330" height="26" rx="14" ry="14" fill="#ea580c"/>
<rect x="400" y="342" width="330" height="34" fill="#ffffff" stroke="none"/>
<text x="414" y="334" class="table-title">agency_agencykycfile</text>
<text x="414" y="360" class="colhead">Key</text>
<text x="472" y="360" class="colhead">Field</text>
<text x="650" y="360" class="colhead">Type</text>
<rect x="401" y="376" width="328" height="20" fill="#f8fafc"/>
<rect x="410" y="380" width="24" height="12" rx="6" ry="6" fill="#f59e0b"/><text x="422" y="389" text-anchor="middle" class="badge" fill="#ffffff">PK</text>
<text x="472" y="390" class="cell">fileID</text>
<text x="650" y="390" class="dtype">int8</text>
<rect x="410" y="400" width="24" height="12" rx="6" ry="6" fill="#2563eb"/><text x="422" y="409" text-anchor="middle" class="badge" fill="#ffffff">FK</text>
<text x="472" y="410" class="cell">agencyKyc_id</text>
<text x="650" y="410" class="dtype">int8</text>
<rect x="401" y="416" width="328" height="20" fill="#f8fafc"/>
<text x="472" y="430" class="cell">fileURL</text>
<text x="650" y="430" class="dtype">varchar</text>
<text x="472" y="450" class="cell">fileType</text>
<text x="650" y="450" class="dtype">varchar</text>
<rect x="401" y="456" width="328" height="20" fill="#f8fafc"/>
<text x="472" y="470" class="cell">ai_verification_status</text>
<text x="650" y="470" class="dtype">varchar</text>
</g> <g>
<rect x="760" y="316" width="330" height="172" rx="14" ry="14" fill="#fff7ed" stroke="#ea580c" stroke-width="2"/>
<rect x="760" y="316" width="330" height="26" rx="14" ry="14" fill="#ea580c"/>
<rect x="760" y="342" width="330" height="34" fill="#ffffff" stroke="none"/>
<text x="774" y="334" class="table-title">agency_kyc_extracted_data</text>
<text x="774" y="360" class="colhead">Key</text>
<text x="832" y="360" class="colhead">Field</text>
<text x="1010" y="360" class="colhead">Type</text>
<rect x="761" y="376" width="328" height="20" fill="#f8fafc"/>
<rect x="770" y="380" width="24" height="12" rx="6" ry="6" fill="#f59e0b"/><text x="782" y="389" text-anchor="middle" class="badge" fill="#ffffff">PK</text>
<text x="832" y="390" class="cell">extractedDataID</text>
<text x="1010" y="390" class="dtype">int8</text>
<rect x="770" y="400" width="24" height="12" rx="6" ry="6" fill="#2563eb"/><text x="782" y="409" text-anchor="middle" class="badge" fill="#ffffff">FK</text>
<text x="832" y="410" class="cell">agencyKyc_id</text>
<text x="1010" y="410" class="dtype">int8</text>
<rect x="761" y="416" width="328" height="20" fill="#f8fafc"/>
<text x="832" y="430" class="cell">extracted_business_name</text>
<text x="1010" y="430" class="dtype">varchar</text>
<text x="832" y="450" class="cell">confirmed_business_name</text>
<text x="1010" y="450" class="dtype">varchar</text>
<rect x="761" y="456" width="328" height="20" fill="#f8fafc"/>
<text x="832" y="470" class="cell">extraction_status</text>
<text x="1010" y="470" class="dtype">varchar</text>
</g>
    <text x="385.0" y="191.0" text-anchor="middle" class="line-label">has file</text> <text x="565.0" y="191.0" text-anchor="middle" class="line-label">extracts</text> <text x="385.0" y="404.0" text-anchor="middle" class="line-label">has file</text> <text x="565.0" y="404.0" text-anchor="middle" class="line-label">extracts</text>
  </g>
</svg>
