<svg xmlns="http://www.w3.org/2000/svg" width="1200" height="1650" viewBox="0 0 1200 1650" role="img" aria-labelledby="title">
  <title>Module 9 - Admin Panel</title>
  <defs>
    
    <marker id="one" viewBox="0 0 12 12" refX="2" refY="6" markerWidth="10" markerHeight="10" orient="auto">
      <path d="M 2 1 L 2 11" stroke="#475569" stroke-width="1.8" fill="none" stroke-linecap="round"/>
    </marker>
    <marker id="crow" viewBox="0 0 16 12" refX="14" refY="6" markerWidth="12" markerHeight="12" orient="auto">
      <path d="M 1 6 L 14 6 M 14 6 L 2 1 M 14 6 L 2 11" stroke="#475569" stroke-width="1.8" fill="none" stroke-linecap="round" stroke-linejoin="round"/>
    </marker>
    
    
    <style>
      .title { font: 700 28px Inter, Arial, sans-serif; fill: #0f172a; }
      .subtitle { font: 400 15px Inter, Arial, sans-serif; fill: #475569; }
      .module-title { font: 700 18px Inter, Arial, sans-serif; }
      .table-title { font: 700 15px Inter, Arial, sans-serif; fill: #ffffff; }
      .colhead { font: 700 11px Inter, Arial, sans-serif; fill: #475569; }
      .cell { font: 11px Inter, Arial, sans-serif; fill: #111827; }
      .dtype { font: 11px "SFMono-Regular", Consolas, monospace; fill: #475569; }
      .badge { font: 700 10px Inter, Arial, sans-serif; }
      .line-label {
        font: 600 12px Inter, Arial, sans-serif;
        fill: #334155;
        paint-order: stroke;
        stroke: #ffffff;
        stroke-width: 4px;
        stroke-linejoin: round;
      }
      .connector {
        fill: none;
        stroke: #475569;
        stroke-width: 1.8;
        marker-start: url(#one);
        marker-end: url(#crow);
      }
    </style>
    
    <filter id="shadow" x="-20%" y="-20%" width="140%" height="150%">
      <feDropShadow dx="0" dy="4" stdDeviation="8" flood-color="#0f172a" flood-opacity="0.10"/>
    </filter>
  </defs>
  <rect width="1200" height="1650" fill="#ffffff"/>
  <text x="40" y="48" class="title">Module 9 - Admin Panel</text>
  <text x="40" y="72" class="subtitle">PK and FK fields shown. Crow's foot connectors use side-only routing with relationship labels.</text>
  <g filter="url(#shadow)">
    <path class="connector" d="M 400.0 392.0 L 385.0 392.0 L 385.0 392.0 L 370.0 392.0"/>
    <g>
<rect x="40" y="108" width="330" height="152" rx="14" ry="14" fill="#f8fafc" stroke="#4b5563" stroke-width="2"/>
<rect x="40" y="108" width="330" height="26" rx="14" ry="14" fill="#4b5563"/>
<rect x="40" y="134" width="330" height="34" fill="#ffffff" stroke="none"/>
<text x="54" y="126" class="table-title">adminpanel_adminaccount</text>
<text x="54" y="152" class="colhead">Key</text>
<text x="112" y="152" class="colhead">Field</text>
<text x="290" y="152" class="colhead">Type</text>
<rect x="41" y="168" width="328" height="20" fill="#f8fafc"/>
<rect x="50" y="172" width="24" height="12" rx="6" ry="6" fill="#f59e0b"/><text x="62" y="181" text-anchor="middle" class="badge" fill="#ffffff">PK</text>
<text x="112" y="182" class="cell">adminID</text>
<text x="290" y="182" class="dtype">int8</text>
<rect x="50" y="192" width="24" height="12" rx="6" ry="6" fill="#2563eb"/><text x="62" y="201" text-anchor="middle" class="badge" fill="#ffffff">FK</text>
<text x="112" y="202" class="cell">accountFK_id</text>
<text x="290" y="202" class="dtype">int8</text>
<rect x="41" y="208" width="328" height="20" fill="#f8fafc"/>
<text x="112" y="222" class="cell">role</text>
<text x="290" y="222" class="dtype">varchar</text>
<text x="112" y="242" class="cell">isActive</text>
<text x="290" y="242" class="dtype">bool</text>
</g> <g>
<rect x="400" y="108" width="330" height="172" rx="14" ry="14" fill="#f8fafc" stroke="#4b5563" stroke-width="2"/>
<rect x="400" y="108" width="330" height="26" rx="14" ry="14" fill="#4b5563"/>
<rect x="400" y="134" width="330" height="34" fill="#ffffff" stroke="none"/>
<text x="414" y="126" class="table-title">adminpanel_auditlog</text>
<text x="414" y="152" class="colhead">Key</text>
<text x="472" y="152" class="colhead">Field</text>
<text x="650" y="152" class="colhead">Type</text>
<rect x="401" y="168" width="328" height="20" fill="#f8fafc"/>
<rect x="410" y="172" width="24" height="12" rx="6" ry="6" fill="#f59e0b"/><text x="422" y="181" text-anchor="middle" class="badge" fill="#ffffff">PK</text>
<text x="472" y="182" class="cell">auditLogID</text>
<text x="650" y="182" class="dtype">int8</text>
<rect x="410" y="192" width="24" height="12" rx="6" ry="6" fill="#2563eb"/><text x="422" y="201" text-anchor="middle" class="badge" fill="#ffffff">FK</text>
<text x="472" y="202" class="cell">adminFK_id</text>
<text x="650" y="202" class="dtype">int8</text>
<rect x="401" y="208" width="328" height="20" fill="#f8fafc"/>
<text x="472" y="222" class="cell">entityType</text>
<text x="650" y="222" class="dtype">varchar</text>
<text x="472" y="242" class="cell">entityID</text>
<text x="650" y="242" class="dtype">varchar</text>
<rect x="401" y="248" width="328" height="20" fill="#f8fafc"/>
<text x="472" y="262" class="cell">action</text>
<text x="650" y="262" class="dtype">varchar</text>
</g> <g>
<rect x="760" y="108" width="330" height="172" rx="14" ry="14" fill="#f8fafc" stroke="#4b5563" stroke-width="2"/>
<rect x="760" y="108" width="330" height="26" rx="14" ry="14" fill="#4b5563"/>
<rect x="760" y="134" width="330" height="34" fill="#ffffff" stroke="none"/>
<text x="774" y="126" class="table-title">adminpanel_kyclogs</text>
<text x="774" y="152" class="colhead">Key</text>
<text x="832" y="152" class="colhead">Field</text>
<text x="1010" y="152" class="colhead">Type</text>
<rect x="761" y="168" width="328" height="20" fill="#f8fafc"/>
<rect x="770" y="172" width="24" height="12" rx="6" ry="6" fill="#f59e0b"/><text x="782" y="181" text-anchor="middle" class="badge" fill="#ffffff">PK</text>
<text x="832" y="182" class="cell">kycLogID</text>
<text x="1010" y="182" class="dtype">int8</text>
<rect x="770" y="192" width="24" height="12" rx="6" ry="6" fill="#2563eb"/><text x="782" y="201" text-anchor="middle" class="badge" fill="#ffffff">FK</text>
<text x="832" y="202" class="cell">accountFK_id</text>
<text x="1010" y="202" class="dtype">int8</text>
<rect x="761" y="208" width="328" height="20" fill="#f8fafc"/>
<rect x="770" y="212" width="24" height="12" rx="6" ry="6" fill="#2563eb"/><text x="782" y="221" text-anchor="middle" class="badge" fill="#ffffff">FK</text>
<text x="832" y="222" class="cell">reviewedBy_id</text>
<text x="1010" y="222" class="dtype">int8</text>
<text x="832" y="242" class="cell">kycID</text>
<text x="1010" y="242" class="dtype">int8</text>
<rect x="761" y="248" width="328" height="20" fill="#f8fafc"/>
<text x="832" y="262" class="cell">action</text>
<text x="1010" y="262" class="dtype">varchar</text>
</g> <g>
<rect x="40" y="296" width="330" height="192" rx="14" ry="14" fill="#f8fafc" stroke="#4b5563" stroke-width="2"/>
<rect x="40" y="296" width="330" height="26" rx="14" ry="14" fill="#4b5563"/>
<rect x="40" y="322" width="330" height="34" fill="#ffffff" stroke="none"/>
<text x="54" y="314" class="table-title">adminpanel_supportticket</text>
<text x="54" y="340" class="colhead">Key</text>
<text x="112" y="340" class="colhead">Field</text>
<text x="290" y="340" class="colhead">Type</text>
<rect x="41" y="356" width="328" height="20" fill="#f8fafc"/>
<rect x="50" y="360" width="24" height="12" rx="6" ry="6" fill="#f59e0b"/><text x="62" y="369" text-anchor="middle" class="badge" fill="#ffffff">PK</text>
<text x="112" y="370" class="cell">ticketID</text>
<text x="290" y="370" class="dtype">int8</text>
<rect x="50" y="380" width="24" height="12" rx="6" ry="6" fill="#2563eb"/><text x="62" y="389" text-anchor="middle" class="badge" fill="#ffffff">FK</text>
<text x="112" y="390" class="cell">assignedTo_id</text>
<text x="290" y="390" class="dtype">int8</text>
<rect x="41" y="396" width="328" height="20" fill="#f8fafc"/>
<rect x="50" y="400" width="24" height="12" rx="6" ry="6" fill="#2563eb"/><text x="62" y="409" text-anchor="middle" class="badge" fill="#ffffff">FK</text>
<text x="112" y="410" class="cell">userFK_id</text>
<text x="290" y="410" class="dtype">int8</text>
<rect x="50" y="420" width="24" height="12" rx="6" ry="6" fill="#2563eb"/><text x="62" y="429" text-anchor="middle" class="badge" fill="#ffffff">FK</text>
<text x="112" y="430" class="cell">agencyFK_id</text>
<text x="290" y="430" class="dtype">int8</text>
<rect x="41" y="436" width="328" height="20" fill="#f8fafc"/>
<text x="112" y="450" class="cell">status</text>
<text x="290" y="450" class="dtype">varchar</text>
<text x="112" y="470" class="cell">priority</text>
<text x="290" y="470" class="dtype">varchar</text>
</g> <g>
<rect x="400" y="316" width="330" height="152" rx="14" ry="14" fill="#f8fafc" stroke="#4b5563" stroke-width="2"/>
<rect x="400" y="316" width="330" height="26" rx="14" ry="14" fill="#4b5563"/>
<rect x="400" y="342" width="330" height="34" fill="#ffffff" stroke="none"/>
<text x="414" y="334" class="table-title">adminpanel_supportticketreply</text>
<text x="414" y="360" class="colhead">Key</text>
<text x="472" y="360" class="colhead">Field</text>
<text x="650" y="360" class="colhead">Type</text>
<rect x="401" y="376" width="328" height="20" fill="#f8fafc"/>
<rect x="410" y="380" width="24" height="12" rx="6" ry="6" fill="#f59e0b"/><text x="422" y="389" text-anchor="middle" class="badge" fill="#ffffff">PK</text>
<text x="472" y="390" class="cell">replyID</text>
<text x="650" y="390" class="dtype">int8</text>
<rect x="410" y="400" width="24" height="12" rx="6" ry="6" fill="#2563eb"/><text x="422" y="409" text-anchor="middle" class="badge" fill="#ffffff">FK</text>
<text x="472" y="410" class="cell">senderFK_id</text>
<text x="650" y="410" class="dtype">int8</text>
<rect x="401" y="416" width="328" height="20" fill="#f8fafc"/>
<rect x="410" y="420" width="24" height="12" rx="6" ry="6" fill="#2563eb"/><text x="422" y="429" text-anchor="middle" class="badge" fill="#ffffff">FK</text>
<text x="472" y="430" class="cell">ticketFK_id</text>
<text x="650" y="430" class="dtype">int8</text>
<text x="472" y="450" class="cell">isSystemMessage</text>
<text x="650" y="450" class="dtype">bool</text>
</g> <g>
<rect x="760" y="316" width="330" height="172" rx="14" ry="14" fill="#f8fafc" stroke="#4b5563" stroke-width="2"/>
<rect x="760" y="316" width="330" height="26" rx="14" ry="14" fill="#4b5563"/>
<rect x="760" y="342" width="330" height="34" fill="#ffffff" stroke="none"/>
<text x="774" y="334" class="table-title">adminpanel_userreport</text>
<text x="774" y="360" class="colhead">Key</text>
<text x="832" y="360" class="colhead">Field</text>
<text x="1010" y="360" class="colhead">Type</text>
<rect x="761" y="376" width="328" height="20" fill="#f8fafc"/>
<rect x="770" y="380" width="24" height="12" rx="6" ry="6" fill="#f59e0b"/><text x="782" y="389" text-anchor="middle" class="badge" fill="#ffffff">PK</text>
<text x="832" y="390" class="cell">reportID</text>
<text x="1010" y="390" class="dtype">int8</text>
<rect x="770" y="400" width="24" height="12" rx="6" ry="6" fill="#2563eb"/><text x="782" y="409" text-anchor="middle" class="badge" fill="#ffffff">FK</text>
<text x="832" y="410" class="cell">reportedUserFK_id</text>
<text x="1010" y="410" class="dtype">int8</text>
<rect x="761" y="416" width="328" height="20" fill="#f8fafc"/>
<rect x="770" y="420" width="24" height="12" rx="6" ry="6" fill="#2563eb"/><text x="782" y="429" text-anchor="middle" class="badge" fill="#ffffff">FK</text>
<text x="832" y="430" class="cell">reporterFK_id</text>
<text x="1010" y="430" class="dtype">int8</text>
<rect x="770" y="440" width="24" height="12" rx="6" ry="6" fill="#2563eb"/><text x="782" y="449" text-anchor="middle" class="badge" fill="#ffffff">FK</text>
<text x="832" y="450" class="cell">reviewedBy_id</text>
<text x="1010" y="450" class="dtype">int8</text>
<rect x="761" y="456" width="328" height="20" fill="#f8fafc"/>
<text x="832" y="470" class="cell">status</text>
<text x="1010" y="470" class="dtype">varchar</text>
</g> <g>
<rect x="40" y="524" width="330" height="152" rx="14" ry="14" fill="#f8fafc" stroke="#4b5563" stroke-width="2"/>
<rect x="40" y="524" width="330" height="26" rx="14" ry="14" fill="#4b5563"/>
<rect x="40" y="550" width="330" height="34" fill="#ffffff" stroke="none"/>
<text x="54" y="542" class="table-title">adminpanel_platformsettings</text>
<text x="54" y="568" class="colhead">Key</text>
<text x="112" y="568" class="colhead">Field</text>
<text x="290" y="568" class="colhead">Type</text>
<rect x="41" y="584" width="328" height="20" fill="#f8fafc"/>
<rect x="50" y="588" width="24" height="12" rx="6" ry="6" fill="#f59e0b"/><text x="62" y="597" text-anchor="middle" class="badge" fill="#ffffff">PK</text>
<text x="112" y="598" class="cell">settingsID</text>
<text x="290" y="598" class="dtype">int8</text>
<rect x="50" y="608" width="24" height="12" rx="6" ry="6" fill="#2563eb"/><text x="62" y="617" text-anchor="middle" class="badge" fill="#ffffff">FK</text>
<text x="112" y="618" class="cell">updatedBy_id</text>
<text x="290" y="618" class="dtype">int8</text>
<rect x="41" y="624" width="328" height="20" fill="#f8fafc"/>
<text x="112" y="638" class="cell">platformFeePercentage</text>
<text x="290" y="638" class="dtype">numeric</text>
<text x="112" y="658" class="cell">maintenanceMode</text>
<text x="290" y="658" class="dtype">bool</text>
</g> <g>
<rect x="400" y="504" width="330" height="152" rx="14" ry="14" fill="#f8fafc" stroke="#4b5563" stroke-width="2"/>
<rect x="400" y="504" width="330" height="26" rx="14" ry="14" fill="#4b5563"/>
<rect x="400" y="530" width="330" height="34" fill="#ffffff" stroke="none"/>
<text x="414" y="522" class="table-title">adminpanel_cannedresponse</text>
<text x="414" y="548" class="colhead">Key</text>
<text x="472" y="548" class="colhead">Field</text>
<text x="650" y="548" class="colhead">Type</text>
<rect x="401" y="564" width="328" height="20" fill="#f8fafc"/>
<rect x="410" y="568" width="24" height="12" rx="6" ry="6" fill="#f59e0b"/><text x="422" y="577" text-anchor="middle" class="badge" fill="#ffffff">PK</text>
<text x="472" y="578" class="cell">responseID</text>
<text x="650" y="578" class="dtype">int8</text>
<rect x="410" y="588" width="24" height="12" rx="6" ry="6" fill="#2563eb"/><text x="422" y="597" text-anchor="middle" class="badge" fill="#ffffff">FK</text>
<text x="472" y="598" class="cell">createdBy_id</text>
<text x="650" y="598" class="dtype">int8</text>
<rect x="401" y="604" width="328" height="20" fill="#f8fafc"/>
<text x="472" y="618" class="cell">title</text>
<text x="650" y="618" class="dtype">varchar</text>
<text x="472" y="638" class="cell">category</text>
<text x="650" y="638" class="dtype">varchar</text>
</g> <g>
<rect x="760" y="524" width="330" height="172" rx="14" ry="14" fill="#f8fafc" stroke="#4b5563" stroke-width="2"/>
<rect x="760" y="524" width="330" height="26" rx="14" ry="14" fill="#4b5563"/>
<rect x="760" y="550" width="330" height="34" fill="#ffffff" stroke="none"/>
<text x="774" y="542" class="table-title">adminpanel_contentmoderationterm</text>
<text x="774" y="568" class="colhead">Key</text>
<text x="832" y="568" class="colhead">Field</text>
<text x="1010" y="568" class="colhead">Type</text>
<rect x="761" y="584" width="328" height="20" fill="#f8fafc"/>
<rect x="770" y="588" width="24" height="12" rx="6" ry="6" fill="#f59e0b"/><text x="782" y="597" text-anchor="middle" class="badge" fill="#ffffff">PK</text>
<text x="832" y="598" class="cell">termID</text>
<text x="1010" y="598" class="dtype">int8</text>
<rect x="770" y="608" width="24" height="12" rx="6" ry="6" fill="#2563eb"/><text x="782" y="617" text-anchor="middle" class="badge" fill="#ffffff">FK</text>
<text x="832" y="618" class="cell">createdBy_id</text>
<text x="1010" y="618" class="dtype">int8</text>
<rect x="761" y="624" width="328" height="20" fill="#f8fafc"/>
<rect x="770" y="628" width="24" height="12" rx="6" ry="6" fill="#2563eb"/><text x="782" y="637" text-anchor="middle" class="badge" fill="#ffffff">FK</text>
<text x="832" y="638" class="cell">updatedBy_id</text>
<text x="1010" y="638" class="dtype">int8</text>
<text x="832" y="658" class="cell">term</text>
<text x="1010" y="658" class="dtype">varchar</text>
<rect x="761" y="664" width="328" height="20" fill="#f8fafc"/>
<text x="832" y="678" class="cell">isActive</text>
<text x="1010" y="678" class="dtype">bool</text>
</g> <g>
<rect x="40" y="712" width="330" height="152" rx="14" ry="14" fill="#f8fafc" stroke="#4b5563" stroke-width="2"/>
<rect x="40" y="712" width="330" height="26" rx="14" ry="14" fill="#4b5563"/>
<rect x="40" y="738" width="330" height="34" fill="#ffffff" stroke="none"/>
<text x="54" y="730" class="table-title">adminpanel_faq</text>
<text x="54" y="756" class="colhead">Key</text>
<text x="112" y="756" class="colhead">Field</text>
<text x="290" y="756" class="colhead">Type</text>
<rect x="41" y="772" width="328" height="20" fill="#f8fafc"/>
<rect x="50" y="776" width="24" height="12" rx="6" ry="6" fill="#f59e0b"/><text x="62" y="785" text-anchor="middle" class="badge" fill="#ffffff">PK</text>
<text x="112" y="786" class="cell">faqID</text>
<text x="290" y="786" class="dtype">int8</text>
<text x="112" y="806" class="cell">question</text>
<text x="290" y="806" class="dtype">varchar</text>
<rect x="41" y="812" width="328" height="20" fill="#f8fafc"/>
<text x="112" y="826" class="cell">category</text>
<text x="290" y="826" class="dtype">varchar</text>
<text x="112" y="846" class="cell">isPublished</text>
<text x="290" y="846" class="dtype">bool</text>
</g> <g>
<rect x="400" y="692" width="330" height="132" rx="14" ry="14" fill="#f8fafc" stroke="#4b5563" stroke-width="2"/>
<rect x="400" y="692" width="330" height="26" rx="14" ry="14" fill="#4b5563"/>
<rect x="400" y="718" width="330" height="34" fill="#ffffff" stroke="none"/>
<text x="414" y="710" class="table-title">adminpanel_systemroles</text>
<text x="414" y="736" class="colhead">Key</text>
<text x="472" y="736" class="colhead">Field</text>
<text x="650" y="736" class="colhead">Type</text>
<rect x="401" y="752" width="328" height="20" fill="#f8fafc"/>
<rect x="410" y="756" width="24" height="12" rx="6" ry="6" fill="#f59e0b"/><text x="422" y="765" text-anchor="middle" class="badge" fill="#ffffff">PK</text>
<text x="472" y="766" class="cell">systemRoleID</text>
<text x="650" y="766" class="dtype">int8</text>
<rect x="410" y="776" width="24" height="12" rx="6" ry="6" fill="#2563eb"/><text x="422" y="785" text-anchor="middle" class="badge" fill="#ffffff">FK</text>
<text x="472" y="786" class="cell">accountID_id</text>
<text x="650" y="786" class="dtype">int8</text>
<rect x="401" y="792" width="328" height="20" fill="#f8fafc"/>
<text x="472" y="806" class="cell">systemRole</text>
<text x="650" y="806" class="dtype">varchar</text>
</g>
    <text x="385.0" y="384.0" text-anchor="middle" class="line-label">belongs to</text>
  </g>
</svg>
