<svg xmlns="http://www.w3.org/2000/svg" width="1200" height="1650" viewBox="0 0 1200 1650" role="img" aria-labelledby="title">
  <title>Module 2 - Profiles &amp; Specializations</title>
  <defs>
    
    <marker id="one" viewBox="0 0 12 12" refX="2" refY="6" markerWidth="10" markerHeight="10" orient="auto">
      <path d="M 2 1 L 2 11" stroke="#475569" stroke-width="1.8" fill="none" stroke-linecap="round"/>
    </marker>
    <marker id="crow" viewBox="0 0 16 12" refX="14" refY="6" markerWidth="12" markerHeight="12" orient="auto">
      <path d="M 1 6 L 14 6 M 14 6 L 2 1 M 14 6 L 2 11" stroke="#475569" stroke-width="1.8" fill="none" stroke-linecap="round" stroke-linejoin="round"/>
    </marker>
    
    
    <style>
      .title { font: 700 28px Inter, Arial, sans-serif; fill: #0f172a; }
      .subtitle { font: 400 15px Inter, Arial, sans-serif; fill: #475569; }
      .module-title { font: 700 18px Inter, Arial, sans-serif; }
      .table-title { font: 700 15px Inter, Arial, sans-serif; fill: #ffffff; }
      .colhead { font: 700 11px Inter, Arial, sans-serif; fill: #475569; }
      .cell { font: 11px Inter, Arial, sans-serif; fill: #111827; }
      .dtype { font: 11px "SFMono-Regular", Consolas, monospace; fill: #475569; }
      .badge { font: 700 10px Inter, Arial, sans-serif; }
      .line-label {
        font: 600 12px Inter, Arial, sans-serif;
        fill: #334155;
        paint-order: stroke;
        stroke: #ffffff;
        stroke-width: 4px;
        stroke-linejoin: round;
      }
      .connector {
        fill: none;
        stroke: #475569;
        stroke-width: 1.8;
        marker-start: url(#one);
        marker-end: url(#crow);
      }
    </style>
    
    <filter id="shadow" x="-20%" y="-20%" width="140%" height="150%">
      <feDropShadow dx="0" dy="4" stdDeviation="8" flood-color="#0f172a" flood-opacity="0.10"/>
    </filter>
  </defs>
  <rect width="1200" height="1650" fill="#ffffff"/>
  <text x="40" y="48" class="title">Module 2 - Profiles &amp; Specializations</text>
  <text x="40" y="72" class="subtitle">PK and FK fields shown. Crow's foot connectors use side-only routing with relationship labels.</text>
  <g filter="url(#shadow)">
    <path class="connector" d="M 400.0 194.0 L 385.0 194.0 L 385.0 214.0 L 370.0 214.0"/> <path class="connector" d="M 760.0 204.0 L 565.0 204.0 L 565.0 214.0 L 370.0 214.0"/> <path class="connector" d="M 760.0 422.0 L 925.0 422.0 L 925.0 204.0 L 1090.0 204.0"/> <path class="connector" d="M 760.0 422.0 L 745.0 422.0 L 745.0 422.0 L 730.0 422.0"/> <path class="connector" d="M 370.0 650.0 L 370.0 422.0 L 400.0 422.0 L 400.0 194.0"/> <path class="connector" d="M 370.0 650.0 L 370.0 536.0 L 400.0 536.0 L 400.0 422.0"/> <path class="connector" d="M 760.0 620.0 L 745.0 620.0 L 745.0 640.0 L 730.0 640.0"/> <path class="connector" d="M 400.0 422.0 L 400.0 437.0 L 370.0 437.0 L 370.0 452.0"/>
    <g>
<rect x="40" y="108" width="330" height="212" rx="14" ry="14" fill="#f0fdf4" stroke="#16a34a" stroke-width="2"/>
<rect x="40" y="108" width="330" height="26" rx="14" ry="14" fill="#16a34a"/>
<rect x="40" y="134" width="330" height="34" fill="#ffffff" stroke="none"/>
<text x="54" y="126" class="table-title">accounts_profile</text>
<text x="54" y="152" class="colhead">Key</text>
<text x="112" y="152" class="colhead">Field</text>
<text x="290" y="152" class="colhead">Type</text>
<rect x="41" y="168" width="328" height="20" fill="#f8fafc"/>
<rect x="50" y="172" width="24" height="12" rx="6" ry="6" fill="#f59e0b"/><text x="62" y="181" text-anchor="middle" class="badge" fill="#ffffff">PK</text>
<text x="112" y="182" class="cell">profileID</text>
<text x="290" y="182" class="dtype">int8</text>
<rect x="50" y="192" width="24" height="12" rx="6" ry="6" fill="#2563eb"/><text x="62" y="201" text-anchor="middle" class="badge" fill="#ffffff">FK</text>
<text x="112" y="202" class="cell">accountFK_id</text>
<text x="290" y="202" class="dtype">int8</text>
<rect x="41" y="208" width="328" height="20" fill="#f8fafc"/>
<text x="112" y="222" class="cell">firstName</text>
<text x="290" y="222" class="dtype">varchar</text>
<text x="112" y="242" class="cell">lastName</text>
<text x="290" y="242" class="dtype">varchar</text>
<rect x="41" y="248" width="328" height="20" fill="#f8fafc"/>
<text x="112" y="262" class="cell">profileType</text>
<text x="290" y="262" class="dtype">varchar</text>
<text x="112" y="282" class="cell">birthDate</text>
<text x="290" y="282" class="dtype">date</text>
<rect x="41" y="288" width="328" height="20" fill="#f8fafc"/>
<text x="112" y="302" class="cell">contactNum</text>
<text x="290" y="302" class="dtype">varchar</text>
</g> <g>
<rect x="400" y="108" width="330" height="172" rx="14" ry="14" fill="#f0fdf4" stroke="#16a34a" stroke-width="2"/>
<rect x="400" y="108" width="330" height="26" rx="14" ry="14" fill="#16a34a"/>
<rect x="400" y="134" width="330" height="34" fill="#ffffff" stroke="none"/>
<text x="414" y="126" class="table-title">accounts_clientprofile</text>
<text x="414" y="152" class="colhead">Key</text>
<text x="472" y="152" class="colhead">Field</text>
<text x="650" y="152" class="colhead">Type</text>
<rect x="401" y="168" width="328" height="20" fill="#f8fafc"/>
<rect x="410" y="172" width="24" height="12" rx="6" ry="6" fill="#f59e0b"/><text x="422" y="181" text-anchor="middle" class="badge" fill="#ffffff">PK</text>
<text x="472" y="182" class="cell">id</text>
<text x="650" y="182" class="dtype">int8</text>
<rect x="410" y="192" width="24" height="12" rx="6" ry="6" fill="#2563eb"/><text x="422" y="201" text-anchor="middle" class="badge" fill="#ffffff">FK</text>
<text x="472" y="202" class="cell">profileID_id</text>
<text x="650" y="202" class="dtype">int8</text>
<rect x="401" y="208" width="328" height="20" fill="#f8fafc"/>
<text x="472" y="222" class="cell">clientRating</text>
<text x="650" y="222" class="dtype">int4</text>
<text x="472" y="242" class="cell">totalJobsPosted</text>
<text x="650" y="242" class="dtype">int4</text>
<rect x="401" y="248" width="328" height="20" fill="#f8fafc"/>
<text x="472" y="262" class="cell">activeJobsCount</text>
<text x="650" y="262" class="dtype">int4</text>
</g> <g>
<rect x="760" y="108" width="330" height="192" rx="14" ry="14" fill="#f0fdf4" stroke="#16a34a" stroke-width="2"/>
<rect x="760" y="108" width="330" height="26" rx="14" ry="14" fill="#16a34a"/>
<rect x="760" y="134" width="330" height="34" fill="#ffffff" stroke="none"/>
<text x="774" y="126" class="table-title">accounts_workerprofile</text>
<text x="774" y="152" class="colhead">Key</text>
<text x="832" y="152" class="colhead">Field</text>
<text x="1010" y="152" class="colhead">Type</text>
<rect x="761" y="168" width="328" height="20" fill="#f8fafc"/>
<rect x="770" y="172" width="24" height="12" rx="6" ry="6" fill="#f59e0b"/><text x="782" y="181" text-anchor="middle" class="badge" fill="#ffffff">PK</text>
<text x="832" y="182" class="cell">id</text>
<text x="1010" y="182" class="dtype">int8</text>
<rect x="770" y="192" width="24" height="12" rx="6" ry="6" fill="#2563eb"/><text x="782" y="201" text-anchor="middle" class="badge" fill="#ffffff">FK</text>
<text x="832" y="202" class="cell">profileID_id</text>
<text x="1010" y="202" class="dtype">int8</text>
<rect x="761" y="208" width="328" height="20" fill="#f8fafc"/>
<text x="832" y="222" class="cell">workerRating</text>
<text x="1010" y="222" class="dtype">int4</text>
<text x="832" y="242" class="cell">availability_status</text>
<text x="1010" y="242" class="dtype">varchar</text>
<rect x="761" y="248" width="328" height="20" fill="#f8fafc"/>
<text x="832" y="262" class="cell">hourly_rate</text>
<text x="1010" y="262" class="dtype">numeric</text>
<text x="832" y="282" class="cell">daily_rate</text>
<text x="1010" y="282" class="dtype">numeric</text>
</g> <g>
<rect x="40" y="356" width="330" height="192" rx="14" ry="14" fill="#f0fdf4" stroke="#16a34a" stroke-width="2"/>
<rect x="40" y="356" width="330" height="26" rx="14" ry="14" fill="#16a34a"/>
<rect x="40" y="382" width="330" height="34" fill="#ffffff" stroke="none"/>
<text x="54" y="374" class="table-title">accounts_agency</text>
<text x="54" y="400" class="colhead">Key</text>
<text x="112" y="400" class="colhead">Field</text>
<text x="290" y="400" class="colhead">Type</text>
<rect x="41" y="416" width="328" height="20" fill="#f8fafc"/>
<rect x="50" y="420" width="24" height="12" rx="6" ry="6" fill="#f59e0b"/><text x="62" y="429" text-anchor="middle" class="badge" fill="#ffffff">PK</text>
<text x="112" y="430" class="cell">agencyId</text>
<text x="290" y="430" class="dtype">int8</text>
<rect x="50" y="440" width="24" height="12" rx="6" ry="6" fill="#2563eb"/><text x="62" y="449" text-anchor="middle" class="badge" fill="#ffffff">FK</text>
<text x="112" y="450" class="cell">accountFK_id</text>
<text x="290" y="450" class="dtype">int8</text>
<rect x="41" y="456" width="328" height="20" fill="#f8fafc"/>
<text x="112" y="470" class="cell">businessName</text>
<text x="290" y="470" class="dtype">varchar</text>
<text x="112" y="490" class="cell">city</text>
<text x="290" y="490" class="dtype">varchar</text>
<rect x="41" y="496" width="328" height="20" fill="#f8fafc"/>
<text x="112" y="510" class="cell">country</text>
<text x="290" y="510" class="dtype">varchar</text>
<text x="112" y="530" class="cell">contactNumber</text>
<text x="290" y="530" class="dtype">varchar</text>
</g> <g>
<rect x="400" y="316" width="330" height="212" rx="14" ry="14" fill="#f0fdf4" stroke="#16a34a" stroke-width="2"/>
<rect x="400" y="316" width="330" height="26" rx="14" ry="14" fill="#16a34a"/>
<rect x="400" y="342" width="330" height="34" fill="#ffffff" stroke="none"/>
<text x="414" y="334" class="table-title">specializations</text>
<text x="414" y="360" class="colhead">Key</text>
<text x="472" y="360" class="colhead">Field</text>
<text x="650" y="360" class="colhead">Type</text>
<rect x="401" y="376" width="328" height="20" fill="#f8fafc"/>
<rect x="410" y="380" width="24" height="12" rx="6" ry="6" fill="#f59e0b"/><text x="422" y="389" text-anchor="middle" class="badge" fill="#ffffff">PK</text>
<text x="472" y="390" class="cell">specializationID</text>
<text x="650" y="390" class="dtype">int8</text>
<text x="472" y="410" class="cell">specializationName</text>
<text x="650" y="410" class="dtype">varchar</text>
<rect x="401" y="416" width="328" height="20" fill="#f8fafc"/>
<text x="472" y="430" class="cell">minimumRate</text>
<text x="650" y="430" class="dtype">numeric</text>
<text x="472" y="450" class="cell">rateType</text>
<text x="650" y="450" class="dtype">varchar</text>
<rect x="401" y="456" width="328" height="20" fill="#f8fafc"/>
<text x="472" y="470" class="cell">skillLevel</text>
<text x="650" y="470" class="dtype">varchar</text>
<rect x="410" y="480" width="24" height="12" rx="6" ry="6" fill="#2563eb"/><text x="422" y="489" text-anchor="middle" class="badge" fill="#ffffff">FK</text>
<text x="472" y="490" class="cell">created_by_agency_id</text>
<text x="650" y="490" class="dtype">int8</text>
<rect x="401" y="496" width="328" height="20" fill="#f8fafc"/>
<rect x="410" y="500" width="24" height="12" rx="6" ry="6" fill="#2563eb"/><text x="422" y="509" text-anchor="middle" class="badge" fill="#ffffff">FK</text>
<text x="472" y="510" class="cell">created_by_worker_id</text>
<text x="650" y="510" class="dtype">int8</text>
</g> <g>
<rect x="760" y="336" width="330" height="172" rx="14" ry="14" fill="#f0fdf4" stroke="#16a34a" stroke-width="2"/>
<rect x="760" y="336" width="330" height="26" rx="14" ry="14" fill="#16a34a"/>
<rect x="760" y="362" width="330" height="34" fill="#ffffff" stroke="none"/>
<text x="774" y="354" class="table-title">accounts_workerspecialization</text>
<text x="774" y="380" class="colhead">Key</text>
<text x="832" y="380" class="colhead">Field</text>
<text x="1010" y="380" class="colhead">Type</text>
<rect x="761" y="396" width="328" height="20" fill="#f8fafc"/>
<rect x="770" y="400" width="24" height="12" rx="6" ry="6" fill="#f59e0b"/><text x="782" y="409" text-anchor="middle" class="badge" fill="#ffffff">PK</text>
<text x="832" y="410" class="cell">id</text>
<text x="1010" y="410" class="dtype">int8</text>
<rect x="770" y="420" width="24" height="12" rx="6" ry="6" fill="#2563eb"/><text x="782" y="429" text-anchor="middle" class="badge" fill="#ffffff">FK</text>
<text x="832" y="430" class="cell">specializationID_id</text>
<text x="1010" y="430" class="dtype">int8</text>
<rect x="761" y="436" width="328" height="20" fill="#f8fafc"/>
<rect x="770" y="440" width="24" height="12" rx="6" ry="6" fill="#2563eb"/><text x="782" y="449" text-anchor="middle" class="badge" fill="#ffffff">FK</text>
<text x="832" y="450" class="cell">workerID_id</text>
<text x="1010" y="450" class="dtype">int8</text>
<text x="832" y="470" class="cell">experienceYears</text>
<text x="1010" y="470" class="dtype">int4</text>
<rect x="761" y="476" width="328" height="20" fill="#f8fafc"/>
<text x="832" y="490" class="cell">skillType</text>
<text x="1010" y="490" class="dtype">varchar</text>
</g> <g>
<rect x="40" y="584" width="330" height="132" rx="14" ry="14" fill="#f0fdf4" stroke="#16a34a" stroke-width="2"/>
<rect x="40" y="584" width="330" height="26" rx="14" ry="14" fill="#16a34a"/>
<rect x="40" y="610" width="330" height="34" fill="#ffffff" stroke="none"/>
<text x="54" y="602" class="table-title">accounts_interestedjobs</text>
<text x="54" y="628" class="colhead">Key</text>
<text x="112" y="628" class="colhead">Field</text>
<text x="290" y="628" class="colhead">Type</text>
<rect x="41" y="644" width="328" height="20" fill="#f8fafc"/>
<rect x="50" y="648" width="24" height="12" rx="6" ry="6" fill="#f59e0b"/><text x="62" y="657" text-anchor="middle" class="badge" fill="#ffffff">PK</text>
<text x="112" y="658" class="cell">id</text>
<text x="290" y="658" class="dtype">int8</text>
<rect x="50" y="668" width="24" height="12" rx="6" ry="6" fill="#2563eb"/><text x="62" y="677" text-anchor="middle" class="badge" fill="#ffffff">FK</text>
<text x="112" y="678" class="cell">clientID_id</text>
<text x="290" y="678" class="dtype">int8</text>
<rect x="41" y="684" width="328" height="20" fill="#f8fafc"/>
<rect x="50" y="688" width="24" height="12" rx="6" ry="6" fill="#2563eb"/><text x="62" y="697" text-anchor="middle" class="badge" fill="#ffffff">FK</text>
<text x="112" y="698" class="cell">specializationID_id</text>
<text x="290" y="698" class="dtype">int8</text>
</g> <g>
<rect x="400" y="564" width="330" height="152" rx="14" ry="14" fill="#f0fdf4" stroke="#16a34a" stroke-width="2"/>
<rect x="400" y="564" width="330" height="26" rx="14" ry="14" fill="#16a34a"/>
<rect x="400" y="590" width="330" height="34" fill="#ffffff" stroke="none"/>
<text x="414" y="582" class="table-title">accounts_city</text>
<text x="414" y="608" class="colhead">Key</text>
<text x="472" y="608" class="colhead">Field</text>
<text x="650" y="608" class="colhead">Type</text>
<rect x="401" y="624" width="328" height="20" fill="#f8fafc"/>
<rect x="410" y="628" width="24" height="12" rx="6" ry="6" fill="#f59e0b"/><text x="422" y="637" text-anchor="middle" class="badge" fill="#ffffff">PK</text>
<text x="472" y="638" class="cell">cityID</text>
<text x="650" y="638" class="dtype">int4</text>
<text x="472" y="658" class="cell">name</text>
<text x="650" y="658" class="dtype">varchar</text>
<rect x="401" y="664" width="328" height="20" fill="#f8fafc"/>
<text x="472" y="678" class="cell">province</text>
<text x="650" y="678" class="dtype">varchar</text>
<text x="472" y="698" class="cell">region</text>
<text x="650" y="698" class="dtype">varchar</text>
</g> <g>
<rect x="760" y="544" width="330" height="152" rx="14" ry="14" fill="#f0fdf4" stroke="#16a34a" stroke-width="2"/>
<rect x="760" y="544" width="330" height="26" rx="14" ry="14" fill="#16a34a"/>
<rect x="760" y="570" width="330" height="34" fill="#ffffff" stroke="none"/>
<text x="774" y="562" class="table-title">accounts_barangay</text>
<text x="774" y="588" class="colhead">Key</text>
<text x="832" y="588" class="colhead">Field</text>
<text x="1010" y="588" class="colhead">Type</text>
<rect x="761" y="604" width="328" height="20" fill="#f8fafc"/>
<rect x="770" y="608" width="24" height="12" rx="6" ry="6" fill="#f59e0b"/><text x="782" y="617" text-anchor="middle" class="badge" fill="#ffffff">PK</text>
<text x="832" y="618" class="cell">barangayID</text>
<text x="1010" y="618" class="dtype">int4</text>
<rect x="770" y="628" width="24" height="12" rx="6" ry="6" fill="#2563eb"/><text x="782" y="637" text-anchor="middle" class="badge" fill="#ffffff">FK</text>
<text x="832" y="638" class="cell">city_id</text>
<text x="1010" y="638" class="dtype">int4</text>
<rect x="761" y="644" width="328" height="20" fill="#f8fafc"/>
<text x="832" y="658" class="cell">name</text>
<text x="1010" y="658" class="dtype">varchar</text>
<text x="832" y="678" class="cell">zipCode</text>
<text x="1010" y="678" class="dtype">varchar</text>
</g>
    <text x="385.0" y="196.0" text-anchor="middle" class="line-label">extends</text> <text x="565.0" y="201.0" text-anchor="middle" class="line-label">extends</text> <text x="925.0" y="305.0" text-anchor="middle" class="line-label">belongs to</text> <text x="745.0" y="414.0" text-anchor="middle" class="line-label">references</text> <text x="385.0" y="414.0" text-anchor="middle" class="line-label">belongs to</text> <text x="385.0" y="528.0" text-anchor="middle" class="line-label">targets</text> <text x="745.0" y="622.0" text-anchor="middle" class="line-label">belongs to</text> <text x="385.0" y="429.0" text-anchor="middle" class="line-label">created by</text>
  </g>
</svg>
