<svg xmlns="http://www.w3.org/2000/svg" width="1200" height="1650" viewBox="0 0 1200 1650" role="img" aria-labelledby="title">
  <title>Module 6 - Daily Jobs</title>
  <defs>
    
    <marker id="one" viewBox="0 0 12 12" refX="2" refY="6" markerWidth="10" markerHeight="10" orient="auto">
      <path d="M 2 1 L 2 11" stroke="#475569" stroke-width="1.8" fill="none" stroke-linecap="round"/>
    </marker>
    <marker id="crow" viewBox="0 0 16 12" refX="14" refY="6" markerWidth="12" markerHeight="12" orient="auto">
      <path d="M 1 6 L 14 6 M 14 6 L 2 1 M 14 6 L 2 11" stroke="#475569" stroke-width="1.8" fill="none" stroke-linecap="round" stroke-linejoin="round"/>
    </marker>
    
    
    <style>
      .title { font: 700 28px Inter, Arial, sans-serif; fill: #0f172a; }
      .subtitle { font: 400 15px Inter, Arial, sans-serif; fill: #475569; }
      .module-title { font: 700 18px Inter, Arial, sans-serif; }
      .table-title { font: 700 15px Inter, Arial, sans-serif; fill: #ffffff; }
      .colhead { font: 700 11px Inter, Arial, sans-serif; fill: #475569; }
      .cell { font: 11px Inter, Arial, sans-serif; fill: #111827; }
      .dtype { font: 11px "SFMono-Regular", Consolas, monospace; fill: #475569; }
      .badge { font: 700 10px Inter, Arial, sans-serif; }
      .line-label {
        font: 600 12px Inter, Arial, sans-serif;
        fill: #334155;
        paint-order: stroke;
        stroke: #ffffff;
        stroke-width: 4px;
        stroke-linejoin: round;
      }
      .connector {
        fill: none;
        stroke: #475569;
        stroke-width: 1.8;
        marker-start: url(#one);
        marker-end: url(#crow);
      }
    </style>
    
    <filter id="shadow" x="-20%" y="-20%" width="140%" height="150%">
      <feDropShadow dx="0" dy="4" stdDeviation="8" flood-color="#0f172a" flood-opacity="0.10"/>
    </filter>
  </defs>
  <rect width="1200" height="1650" fill="#ffffff"/>
  <text x="40" y="48" class="title">Module 6 - Daily Jobs</text>
  <text x="40" y="72" class="subtitle">PK and FK fields shown. Crow's foot connectors use side-only routing with relationship labels.</text>
  <g filter="url(#shadow)">
    
    <g>
<rect x="40" y="108" width="330" height="212" rx="14" ry="14" fill="#fdf2f8" stroke="#db2777" stroke-width="2"/>
<rect x="40" y="108" width="330" height="26" rx="14" ry="14" fill="#db2777"/>
<rect x="40" y="134" width="330" height="34" fill="#ffffff" stroke="none"/>
<text x="54" y="126" class="table-title">daily_attendance</text>
<text x="54" y="152" class="colhead">Key</text>
<text x="112" y="152" class="colhead">Field</text>
<text x="290" y="152" class="colhead">Type</text>
<rect x="41" y="168" width="328" height="20" fill="#f8fafc"/>
<rect x="50" y="172" width="24" height="12" rx="6" ry="6" fill="#f59e0b"/><text x="62" y="181" text-anchor="middle" class="badge" fill="#ffffff">PK</text>
<text x="112" y="182" class="cell">attendanceID</text>
<text x="290" y="182" class="dtype">int8</text>
<rect x="50" y="192" width="24" height="12" rx="6" ry="6" fill="#2563eb"/><text x="62" y="201" text-anchor="middle" class="badge" fill="#ffffff">FK</text>
<text x="112" y="202" class="cell">jobID_id</text>
<text x="290" y="202" class="dtype">int8</text>
<rect x="41" y="208" width="328" height="20" fill="#f8fafc"/>
<rect x="50" y="212" width="24" height="12" rx="6" ry="6" fill="#2563eb"/><text x="62" y="221" text-anchor="middle" class="badge" fill="#ffffff">FK</text>
<text x="112" y="222" class="cell">workerID_id</text>
<text x="290" y="222" class="dtype">int8</text>
<rect x="50" y="232" width="24" height="12" rx="6" ry="6" fill="#2563eb"/><text x="62" y="241" text-anchor="middle" class="badge" fill="#ffffff">FK</text>
<text x="112" y="242" class="cell">assignmentID_id</text>
<text x="290" y="242" class="dtype">int8</text>
<rect x="41" y="248" width="328" height="20" fill="#f8fafc"/>
<rect x="50" y="252" width="24" height="12" rx="6" ry="6" fill="#2563eb"/><text x="62" y="261" text-anchor="middle" class="badge" fill="#ffffff">FK</text>
<text x="112" y="262" class="cell">employeeID_id</text>
<text x="290" y="262" class="dtype">int8</text>
<text x="112" y="282" class="cell">date</text>
<text x="290" y="282" class="dtype">date</text>
<rect x="41" y="288" width="328" height="20" fill="#f8fafc"/>
<text x="112" y="302" class="cell">status</text>
<text x="290" y="302" class="dtype">varchar</text>
</g> <g>
<rect x="400" y="108" width="330" height="172" rx="14" ry="14" fill="#fdf2f8" stroke="#db2777" stroke-width="2"/>
<rect x="400" y="108" width="330" height="26" rx="14" ry="14" fill="#db2777"/>
<rect x="400" y="134" width="330" height="34" fill="#ffffff" stroke="none"/>
<text x="414" y="126" class="table-title">daily_job_extensions</text>
<text x="414" y="152" class="colhead">Key</text>
<text x="472" y="152" class="colhead">Field</text>
<text x="650" y="152" class="colhead">Type</text>
<rect x="401" y="168" width="328" height="20" fill="#f8fafc"/>
<rect x="410" y="172" width="24" height="12" rx="6" ry="6" fill="#f59e0b"/><text x="422" y="181" text-anchor="middle" class="badge" fill="#ffffff">PK</text>
<text x="472" y="182" class="cell">extensionID</text>
<text x="650" y="182" class="dtype">int8</text>
<rect x="410" y="192" width="24" height="12" rx="6" ry="6" fill="#2563eb"/><text x="422" y="201" text-anchor="middle" class="badge" fill="#ffffff">FK</text>
<text x="472" y="202" class="cell">jobID_id</text>
<text x="650" y="202" class="dtype">int8</text>
<rect x="401" y="208" width="328" height="20" fill="#f8fafc"/>
<rect x="410" y="212" width="24" height="12" rx="6" ry="6" fill="#2563eb"/><text x="422" y="221" text-anchor="middle" class="badge" fill="#ffffff">FK</text>
<text x="472" y="222" class="cell">requestedByUser_id</text>
<text x="650" y="222" class="dtype">int8</text>
<text x="472" y="242" class="cell">additional_days</text>
<text x="650" y="242" class="dtype">int4</text>
<rect x="401" y="248" width="328" height="20" fill="#f8fafc"/>
<text x="472" y="262" class="cell">status</text>
<text x="650" y="262" class="dtype">varchar</text>
</g> <g>
<rect x="760" y="108" width="330" height="192" rx="14" ry="14" fill="#fdf2f8" stroke="#db2777" stroke-width="2"/>
<rect x="760" y="108" width="330" height="26" rx="14" ry="14" fill="#db2777"/>
<rect x="760" y="134" width="330" height="34" fill="#ffffff" stroke="none"/>
<text x="774" y="126" class="table-title">daily_rate_changes</text>
<text x="774" y="152" class="colhead">Key</text>
<text x="832" y="152" class="colhead">Field</text>
<text x="1010" y="152" class="colhead">Type</text>
<rect x="761" y="168" width="328" height="20" fill="#f8fafc"/>
<rect x="770" y="172" width="24" height="12" rx="6" ry="6" fill="#f59e0b"/><text x="782" y="181" text-anchor="middle" class="badge" fill="#ffffff">PK</text>
<text x="832" y="182" class="cell">changeID</text>
<text x="1010" y="182" class="dtype">int8</text>
<rect x="770" y="192" width="24" height="12" rx="6" ry="6" fill="#2563eb"/><text x="782" y="201" text-anchor="middle" class="badge" fill="#ffffff">FK</text>
<text x="832" y="202" class="cell">jobID_id</text>
<text x="1010" y="202" class="dtype">int8</text>
<rect x="761" y="208" width="328" height="20" fill="#f8fafc"/>
<rect x="770" y="212" width="24" height="12" rx="6" ry="6" fill="#2563eb"/><text x="782" y="221" text-anchor="middle" class="badge" fill="#ffffff">FK</text>
<text x="832" y="222" class="cell">requestedByUser_id</text>
<text x="1010" y="222" class="dtype">int8</text>
<text x="832" y="242" class="cell">old_rate</text>
<text x="1010" y="242" class="dtype">numeric</text>
<rect x="761" y="248" width="328" height="20" fill="#f8fafc"/>
<text x="832" y="262" class="cell">new_rate</text>
<text x="1010" y="262" class="dtype">numeric</text>
<text x="832" y="282" class="cell">status</text>
<text x="1010" y="282" class="dtype">varchar</text>
</g> <g>
<rect x="40" y="356" width="330" height="232" rx="14" ry="14" fill="#fdf2f8" stroke="#db2777" stroke-width="2"/>
<rect x="40" y="356" width="330" height="26" rx="14" ry="14" fill="#db2777"/>
<rect x="40" y="382" width="330" height="34" fill="#ffffff" stroke="none"/>
<text x="54" y="374" class="table-title">daily_skip_day_requests</text>
<text x="54" y="400" class="colhead">Key</text>
<text x="112" y="400" class="colhead">Field</text>
<text x="290" y="400" class="colhead">Type</text>
<rect x="41" y="416" width="328" height="20" fill="#f8fafc"/>
<rect x="50" y="420" width="24" height="12" rx="6" ry="6" fill="#f59e0b"/><text x="62" y="429" text-anchor="middle" class="badge" fill="#ffffff">PK</text>
<text x="112" y="430" class="cell">skipRequestID</text>
<text x="290" y="430" class="dtype">int8</text>
<rect x="50" y="440" width="24" height="12" rx="6" ry="6" fill="#2563eb"/><text x="62" y="449" text-anchor="middle" class="badge" fill="#ffffff">FK</text>
<text x="112" y="450" class="cell">jobID_id</text>
<text x="290" y="450" class="dtype">int8</text>
<rect x="41" y="456" width="328" height="20" fill="#f8fafc"/>
<rect x="50" y="460" width="24" height="12" rx="6" ry="6" fill="#2563eb"/><text x="62" y="469" text-anchor="middle" class="badge" fill="#ffffff">FK</text>
<text x="112" y="470" class="cell">requestedByUser_id</text>
<text x="290" y="470" class="dtype">int8</text>
<rect x="50" y="480" width="24" height="12" rx="6" ry="6" fill="#2563eb"/><text x="62" y="489" text-anchor="middle" class="badge" fill="#ffffff">FK</text>
<text x="112" y="490" class="cell">reviewedByUser_id</text>
<text x="290" y="490" class="dtype">int8</text>
<rect x="41" y="496" width="328" height="20" fill="#f8fafc"/>
<rect x="50" y="500" width="24" height="12" rx="6" ry="6" fill="#2563eb"/><text x="62" y="509" text-anchor="middle" class="badge" fill="#ffffff">FK</text>
<text x="112" y="510" class="cell">target_employee_id</text>
<text x="290" y="510" class="dtype">int8</text>
<rect x="50" y="520" width="24" height="12" rx="6" ry="6" fill="#2563eb"/><text x="62" y="529" text-anchor="middle" class="badge" fill="#ffffff">FK</text>
<text x="112" y="530" class="cell">target_worker_account_id</text>
<text x="290" y="530" class="dtype">int8</text>
<rect x="41" y="536" width="328" height="20" fill="#f8fafc"/>
<text x="112" y="550" class="cell">status</text>
<text x="290" y="550" class="dtype">varchar</text>
<text x="112" y="570" class="cell">request_date</text>
<text x="290" y="570" class="dtype">date</text>
</g> <g>
<rect x="400" y="316" width="330" height="172" rx="14" ry="14" fill="#fdf2f8" stroke="#db2777" stroke-width="2"/>
<rect x="400" y="316" width="330" height="26" rx="14" ry="14" fill="#db2777"/>
<rect x="400" y="342" width="330" height="34" fill="#ffffff" stroke="none"/>
<text x="414" y="334" class="table-title">backjob_schedule_confirmations</text>
<text x="414" y="360" class="colhead">Key</text>
<text x="472" y="360" class="colhead">Field</text>
<text x="650" y="360" class="colhead">Type</text>
<rect x="401" y="376" width="328" height="20" fill="#f8fafc"/>
<rect x="410" y="380" width="24" height="12" rx="6" ry="6" fill="#f59e0b"/><text x="422" y="389" text-anchor="middle" class="badge" fill="#ffffff">PK</text>
<text x="472" y="390" class="cell">confirmationID</text>
<text x="650" y="390" class="dtype">int8</text>
<rect x="410" y="400" width="24" height="12" rx="6" ry="6" fill="#2563eb"/><text x="422" y="409" text-anchor="middle" class="badge" fill="#ffffff">FK</text>
<text x="472" y="410" class="cell">assignmentID_id</text>
<text x="650" y="410" class="dtype">int8</text>
<rect x="401" y="416" width="328" height="20" fill="#f8fafc"/>
<rect x="410" y="420" width="24" height="12" rx="6" ry="6" fill="#2563eb"/><text x="422" y="429" text-anchor="middle" class="badge" fill="#ffffff">FK</text>
<text x="472" y="430" class="cell">confirmedBy_id</text>
<text x="650" y="430" class="dtype">int8</text>
<rect x="410" y="440" width="24" height="12" rx="6" ry="6" fill="#2563eb"/><text x="422" y="449" text-anchor="middle" class="badge" fill="#ffffff">FK</text>
<text x="472" y="450" class="cell">disputeID_id</text>
<text x="650" y="450" class="dtype">int8</text>
<rect x="401" y="456" width="328" height="20" fill="#f8fafc"/>
<text x="472" y="470" class="cell">confirmed</text>
<text x="650" y="470" class="dtype">bool</text>
</g>
    
  </g>
</svg>
