<svg xmlns="http://www.w3.org/2000/svg" width="1240" height="1754" viewBox="0 0 1240 1754" role="img" aria-labelledby="title desc">
  <title id="title">Platform Database Overview - Portrait</title>
  <desc id="desc">Portrait overview of the platform database modules for paper documents, using proper crow's foot notation symbols and labeled relationships.</desc>
  <defs>
    <linearGradient id="bg" x1="0" y1="0" x2="0" y2="1">
      <stop offset="0%" stop-color="#f8fafc"/>
      <stop offset="100%" stop-color="#ffffff"/>
    </linearGradient>
    <filter id="shadow" x="-20%" y="-20%" width="140%" height="160%">
      <feDropShadow dx="0" dy="4" stdDeviation="10" flood-color="#0f172a" flood-opacity="0.10"/>
    </filter>
    <style>
      .title { font: 700 30px Inter, Arial, sans-serif; fill: #14532d; }
      .subtitle { font: 400 16px Inter, Arial, sans-serif; fill: #475569; }
      .module-title { font: 700 18px Inter, Arial, sans-serif; fill: #ffffff; }
      .list { font: 14px "SFMono-Regular", Consolas, Menlo, monospace; fill: #1f2937; }
      .line { fill: none; stroke: #475569; stroke-width: 2.2; stroke-linecap: round; stroke-linejoin: round; }
      .sym { fill: none; stroke: #475569; stroke-width: 2.2; stroke-linecap: round; stroke-linejoin: round; }
      .sym-circle { fill: #ffffff; stroke: #475569; stroke-width: 2.2; }
      .label {
        font: 700 14px Inter, Arial, sans-serif;
        fill: #334155;
        paint-order: stroke;
        stroke: #ffffff;
        stroke-width: 6px;
        stroke-linejoin: round;
      }
      .card-outline { fill: #ffffff; stroke: #d1d5db; stroke-width: 1.4; }
    </style>
  </defs>

  <rect width="1240" height="1754" fill="url(#bg)"/>

  <text x="620" y="56" text-anchor="middle" class="title">Platform Database - Module Overview</text>
  <text x="620" y="84" text-anchor="middle" class="subtitle">Portrait paper-friendly overview. Detailed PK/FK ERDs will follow one module at a time after approval.</text>

  <!-- Relationship lines and manual crow notation -->
  <g>
    <line x1="558" y1="230" x2="638" y2="230" class="line"/>
    <line x1="550" y1="221" x2="550" y2="239" class="sym"/>
    <line x1="556" y1="221" x2="556" y2="239" class="sym"/>
    <circle cx="644" cy="230" r="5" class="sym-circle"/>
    <line x1="654" y1="221" x2="654" y2="239" class="sym"/>
  </g>
  <g>
    <line x1="270" y1="358" x2="270" y2="388" class="line"/>
    <line x1="261" y1="350" x2="279" y2="350" class="sym"/>
    <line x1="261" y1="356" x2="279" y2="356" class="sym"/>
    <circle cx="270" cy="396" r="5" class="sym-circle"/>
    <line x1="270" y1="401" x2="270" y2="406" class="sym"/>
    <line x1="270" y1="406" x2="262" y2="416" class="sym"/>
    <line x1="270" y1="406" x2="270" y2="416" class="sym"/>
    <line x1="270" y1="406" x2="278" y2="416" class="sym"/>
  </g>
  <g>
    <line x1="940" y1="358" x2="940" y2="392" class="line"/>
    <line x1="931" y1="350" x2="949" y2="350" class="sym"/>
    <line x1="931" y1="356" x2="949" y2="356" class="sym"/>
    <line x1="931" y1="398" x2="949" y2="398" class="sym"/>
    <line x1="940" y1="402" x2="940" y2="406" class="sym"/>
    <line x1="940" y1="406" x2="932" y2="416" class="sym"/>
    <line x1="940" y1="406" x2="940" y2="416" class="sym"/>
    <line x1="940" y1="406" x2="948" y2="416" class="sym"/>
  </g>
  <g>
    <line x1="572" y1="530" x2="646" y2="530" class="line"/>
    <line x1="554" y1="521" x2="554" y2="539" class="sym"/>
    <circle cx="566" cy="530" r="5" class="sym-circle"/>
    <line x1="652" y1="521" x2="652" y2="539" class="sym"/>
    <line x1="660" y1="530" x2="670" y2="522" class="sym"/>
    <line x1="660" y1="530" x2="670" y2="530" class="sym"/>
    <line x1="660" y1="530" x2="670" y2="538" class="sym"/>
  </g>
  <g>
    <line x1="940" y1="658" x2="940" y2="688" class="line"/>
    <line x1="931" y1="650" x2="949" y2="650" class="sym"/>
    <line x1="931" y1="656" x2="949" y2="656" class="sym"/>
    <line x1="931" y1="694" x2="949" y2="694" class="sym"/>
    <line x1="940" y1="698" x2="940" y2="702" class="sym"/>
    <line x1="940" y1="702" x2="932" y2="712" class="sym"/>
    <line x1="940" y1="702" x2="940" y2="712" class="sym"/>
    <line x1="940" y1="702" x2="948" y2="712" class="sym"/>
  </g>
  <g>
    <line x1="940" y1="958" x2="940" y2="988" class="line"/>
    <line x1="931" y1="950" x2="949" y2="950" class="sym"/>
    <line x1="931" y1="956" x2="949" y2="956" class="sym"/>
    <circle cx="940" cy="996" r="5" class="sym-circle"/>
    <line x1="940" y1="1001" x2="940" y2="1006" class="sym"/>
    <line x1="940" y1="1006" x2="932" y2="1016" class="sym"/>
    <line x1="940" y1="1006" x2="940" y2="1016" class="sym"/>
    <line x1="940" y1="1006" x2="948" y2="1016" class="sym"/>
  </g>
  <g>
    <line x1="558" y1="1130" x2="646" y2="1130" class="line"/>
    <line x1="550" y1="1121" x2="550" y2="1139" class="sym"/>
    <line x1="556" y1="1121" x2="556" y2="1139" class="sym"/>
    <line x1="652" y1="1121" x2="652" y2="1139" class="sym"/>
    <line x1="660" y1="1130" x2="670" y2="1122" class="sym"/>
    <line x1="660" y1="1130" x2="670" y2="1130" class="sym"/>
    <line x1="660" y1="1130" x2="670" y2="1138" class="sym"/>
  </g>
  <g>
    <line x1="270" y1="958" x2="270" y2="988" class="line"/>
    <line x1="261" y1="950" x2="279" y2="950" class="sym"/>
    <line x1="261" y1="956" x2="279" y2="956" class="sym"/>
    <line x1="261" y1="994" x2="279" y2="994" class="sym"/>
    <line x1="270" y1="998" x2="270" y2="1002" class="sym"/>
    <line x1="270" y1="1002" x2="262" y2="1012" class="sym"/>
    <line x1="270" y1="1002" x2="270" y2="1012" class="sym"/>
    <line x1="270" y1="1002" x2="278" y2="1012" class="sym"/>
  </g>
  <g>
    <line x1="270" y1="1258" x2="270" y2="1288" class="line"/>
    <line x1="261" y1="1250" x2="279" y2="1250" class="sym"/>
    <line x1="261" y1="1256" x2="279" y2="1256" class="sym"/>
    <line x1="261" y1="1294" x2="279" y2="1294" class="sym"/>
    <line x1="270" y1="1298" x2="270" y2="1302" class="sym"/>
    <line x1="270" y1="1302" x2="262" y2="1312" class="sym"/>
    <line x1="270" y1="1302" x2="270" y2="1312" class="sym"/>
    <line x1="270" y1="1302" x2="278" y2="1312" class="sym"/>
  </g>
  <g>
    <line x1="940" y1="1258" x2="940" y2="1288" class="line"/>
    <line x1="931" y1="1250" x2="949" y2="1250" class="sym"/>
    <line x1="931" y1="1256" x2="949" y2="1256" class="sym"/>
    <line x1="931" y1="1294" x2="949" y2="1294" class="sym"/>
    <line x1="940" y1="1298" x2="940" y2="1302" class="sym"/>
    <line x1="940" y1="1302" x2="932" y2="1312" class="sym"/>
    <line x1="940" y1="1302" x2="940" y2="1312" class="sym"/>
    <line x1="940" y1="1302" x2="948" y2="1312" class="sym"/>
  </g>

  <!-- Relationship labels -->
  <text x="605" y="214" text-anchor="middle" class="label">has profile</text>
  <text x="292" y="382" text-anchor="start" class="label">submits KYC</text>
  <text x="962" y="382" text-anchor="start" class="label">posts / applies</text>
  <text x="605" y="514" text-anchor="middle" class="label">creates operations</text>
  <text x="962" y="682" text-anchor="start" class="label">tracks daily work</text>
  <text x="962" y="982" text-anchor="start" class="label">starts conversation</text>
  <text x="605" y="1114" text-anchor="middle" class="label">generates payment</text>
  <text x="292" y="982" text-anchor="start" class="label">audited by</text>
  <text x="292" y="1282" text-anchor="start" class="label">reviews</text>
  <text x="962" y="1282" text-anchor="start" class="label">fulfills jobs</text>

  <!-- Row 1 -->
  <g filter="url(#shadow)">
    <rect x="70" y="120" width="470" height="220" rx="18" ry="18" class="card-outline"/>
    <rect x="70" y="120" width="470" height="46" rx="18" ry="18" fill="#14532d"/>
    <text x="92" y="149" class="module-title">1. Auth &amp; Accounts</text>
    <text x="95" y="194" class="list">
      <tspan x="95" dy="0">accounts_accounts</tspan>
      <tspan x="95" dy="19">account_emailaddress</tspan>
      <tspan x="95" dy="19">account_emailconfirmation</tspan>
      <tspan x="95" dy="19">socialaccount_socialaccount</tspan>
      <tspan x="95" dy="19">socialaccount_socialapp</tspan>
      <tspan x="95" dy="19">socialaccount_socialtoken</tspan>
      <tspan x="95" dy="19">auth_group / auth_permission / django_session</tspan>
    </text>
  </g>

  <g filter="url(#shadow)">
    <rect x="670" y="120" width="500" height="220" rx="18" ry="18" class="card-outline"/>
    <rect x="670" y="120" width="500" height="46" rx="18" ry="18" fill="#14532d"/>
    <text x="692" y="149" class="module-title">2. Profiles &amp; Specializations</text>
    <text x="695" y="194" class="list">
      <tspan x="695" dy="0">accounts_profile</tspan>
      <tspan x="695" dy="19">accounts_clientprofile</tspan>
      <tspan x="695" dy="19">accounts_workerprofile</tspan>
      <tspan x="695" dy="19">accounts_agency</tspan>
      <tspan x="695" dy="19">accounts_workerspecialization</tspan>
      <tspan x="695" dy="19">specializations / accounts_interestedjobs</tspan>
      <tspan x="695" dy="19">accounts_city / accounts_barangay</tspan>
    </text>
  </g>

  <!-- Row 2 -->
  <g filter="url(#shadow)">
    <rect x="70" y="420" width="470" height="220" rx="18" ry="18" class="card-outline"/>
    <rect x="70" y="420" width="470" height="46" rx="18" ry="18" fill="#14532d"/>
    <text x="92" y="449" class="module-title">3. KYC Verification</text>
    <text x="95" y="494" class="list">
      <tspan x="95" dy="0">accounts_kyc</tspan>
      <tspan x="95" dy="19">accounts_kycfiles</tspan>
      <tspan x="95" dy="19">kyc_extracted_data</tspan>
      <tspan x="95" dy="19">agency_agencykyc</tspan>
      <tspan x="95" dy="19">agency_agencykycfile</tspan>
      <tspan x="95" dy="19">agency_kyc_extracted_data</tspan>
    </text>
  </g>

  <g filter="url(#shadow)">
    <rect x="670" y="420" width="500" height="220" rx="18" ry="18" class="card-outline"/>
    <rect x="670" y="420" width="500" height="46" rx="18" ry="18" fill="#14532d"/>
    <text x="692" y="449" class="module-title">4. Jobs &amp; Applications</text>
    <text x="695" y="494" class="list">
      <tspan x="695" dy="0">jobs</tspan>
      <tspan x="695" dy="19">job_skill_slots</tspan>
      <tspan x="695" dy="19">job_applications</tspan>
      <tspan x="695" dy="19">job_worker_assignments</tspan>
      <tspan x="695" dy="19">job_employee_assignments</tspan>
      <tspan x="695" dy="19">price_negotiations / saved_jobs</tspan>
    </text>
  </g>

  <!-- Row 3 -->
  <g filter="url(#shadow)">
    <rect x="70" y="720" width="470" height="220" rx="18" ry="18" class="card-outline"/>
    <rect x="70" y="720" width="470" height="46" rx="18" ry="18" fill="#14532d"/>
    <text x="92" y="749" class="module-title">5. Job Operations</text>
    <text x="95" y="794" class="list">
      <tspan x="95" dy="0">job_logs</tspan>
      <tspan x="95" dy="19">job_materials</tspan>
      <tspan x="95" dy="19">job_photos</tspan>
      <tspan x="95" dy="19">job_reviews</tspan>
      <tspan x="95" dy="19">job_disputes</tspan>
      <tspan x="95" dy="19">dispute_evidence / review_skill_tags</tspan>
    </text>
  </g>

  <g filter="url(#shadow)">
    <rect x="670" y="720" width="500" height="220" rx="18" ry="18" class="card-outline"/>
    <rect x="670" y="720" width="500" height="46" rx="18" ry="18" fill="#14532d"/>
    <text x="692" y="749" class="module-title">6. Daily Jobs</text>
    <text x="695" y="794" class="list">
      <tspan x="695" dy="0">daily_attendance</tspan>
      <tspan x="695" dy="19">daily_job_extensions</tspan>
      <tspan x="695" dy="19">daily_rate_changes</tspan>
      <tspan x="695" dy="19">daily_skip_day_requests</tspan>
      <tspan x="695" dy="19">backjob_schedule_confirmations</tspan>
    </text>
  </g>

  <!-- Row 4 -->
  <g filter="url(#shadow)">
    <rect x="70" y="1020" width="470" height="220" rx="18" ry="18" class="card-outline"/>
    <rect x="70" y="1020" width="470" height="46" rx="18" ry="18" fill="#14532d"/>
    <text x="92" y="1049" class="module-title">7. Finance &amp; Payments</text>
    <text x="95" y="1094" class="list">
      <tspan x="95" dy="0">accounts_wallet</tspan>
      <tspan x="95" dy="19">accounts_transaction</tspan>
      <tspan x="95" dy="19">accounts_userpaymentmethod</tspan>
    </text>
  </g>

  <g filter="url(#shadow)">
    <rect x="670" y="1020" width="500" height="220" rx="18" ry="18" class="card-outline"/>
    <rect x="670" y="1020" width="500" height="46" rx="18" ry="18" fill="#14532d"/>
    <text x="692" y="1049" class="module-title">8. Messaging</text>
    <text x="695" y="1094" class="list">
      <tspan x="695" dy="0">conversation</tspan>
      <tspan x="695" dy="19">conversation_participants</tspan>
      <tspan x="695" dy="19">message</tspan>
      <tspan x="695" dy="19">message_attachment</tspan>
    </text>
  </g>

  <!-- Row 5 -->
  <g filter="url(#shadow)">
    <rect x="70" y="1320" width="470" height="220" rx="18" ry="18" class="card-outline"/>
    <rect x="70" y="1320" width="470" height="46" rx="18" ry="18" fill="#14532d"/>
    <text x="92" y="1349" class="module-title">9. Admin Panel</text>
    <text x="95" y="1394" class="list">
      <tspan x="95" dy="0">adminpanel_adminaccount</tspan>
      <tspan x="95" dy="19">adminpanel_auditlog / adminpanel_kyclogs</tspan>
      <tspan x="95" dy="19">adminpanel_supportticket / reply</tspan>
      <tspan x="95" dy="19">adminpanel_userreport</tspan>
      <tspan x="95" dy="19">adminpanel_platformsettings</tspan>
      <tspan x="95" dy="19">adminpanel_cannedresponse / faq / systemroles</tspan>
    </text>
  </g>

  <g filter="url(#shadow)">
    <rect x="670" y="1320" width="500" height="220" rx="18" ry="18" class="card-outline"/>
    <rect x="670" y="1320" width="500" height="46" rx="18" ry="18" fill="#14532d"/>
    <text x="692" y="1349" class="module-title">10. Workers &amp; Agencies</text>
    <text x="695" y="1394" class="list">
      <tspan x="695" dy="0">agency_employees</tspan>
      <tspan x="695" dy="19">worker_certifications</tspan>
      <tspan x="695" dy="19">worker_materials</tspan>
      <tspan x="695" dy="19">worker_portfolio</tspan>
      <tspan x="695" dy="19">profiles_workerproduct</tspan>
      <tspan x="695" dy="19">accounts_notification / settings / pushtoken</tspan>
    </text>
  </g>

  <!-- Notation legend -->
  <g filter="url(#shadow)">
    <rect x="70" y="1580" width="1100" height="116" rx="18" ry="18" class="card-outline"/>
    <text x="92" y="1610" style="font: 700 16px Inter, Arial, sans-serif; fill: #14532d;">Crow's Foot Notation Legend</text>

    <line x1="100" y1="1645" x2="165" y2="1645" class="line"/>
    <circle cx="171" cy="1645" r="5" class="sym-circle"/>
    <line x1="181" y1="1636" x2="181" y2="1654" class="sym"/>
    <text x="145" y="1678" text-anchor="middle" class="label" style="stroke-width:4px;">zero or one</text>

    <line x1="300" y1="1645" x2="370" y2="1645" class="line"/>
    <line x1="378" y1="1645" x2="388" y2="1637" class="sym"/>
    <line x1="378" y1="1645" x2="388" y2="1645" class="sym"/>
    <line x1="378" y1="1645" x2="388" y2="1653" class="sym"/>
    <text x="345" y="1678" text-anchor="middle" class="label" style="stroke-width:4px;">many</text>

    <line x1="500" y1="1645" x2="575" y2="1645" class="line"/>
    <line x1="583" y1="1636" x2="583" y2="1654" class="sym"/>
    <text x="545" y="1678" text-anchor="middle" class="label" style="stroke-width:4px;">one</text>

    <line x1="700" y1="1645" x2="779" y2="1645" class="line"/>
    <line x1="785" y1="1636" x2="785" y2="1654" class="sym"/>
    <line x1="791" y1="1636" x2="791" y2="1654" class="sym"/>
    <text x="745" y="1678" text-anchor="middle" class="label" style="stroke-width:4px;">one and only one</text>

    <line x1="900" y1="1645" x2="960" y2="1645" class="line"/>
    <circle cx="968" cy="1645" r="5" class="sym-circle"/>
    <line x1="978" y1="1645" x2="988" y2="1637" class="sym"/>
    <line x1="978" y1="1645" x2="988" y2="1645" class="sym"/>
    <line x1="978" y1="1645" x2="988" y2="1653" class="sym"/>
    <text x="945" y="1678" text-anchor="middle" class="label" style="stroke-width:4px;">zero or many</text>
  </g>
</svg>
